<mxfile host="65bd71144e" pages="2">
    <diagram name="First_Idea" id="0XX8voWQZg67bfcwIz8j">
        <mxGraphModel dx="749" dy="908" grid="1" gridSize="10" guides="1" tooltips="1" connect="1" arrows="1" fold="1" page="1" pageScale="1" pageWidth="827" pageHeight="1169" math="0" shadow="0">
            <root>
                <mxCell id="0"/>
                <mxCell id="1" parent="0"/>
                <mxCell id="9YF9n_oOePTZYvX8SAIh-277" value="Area Bagni" style="text;html=1;align=center;verticalAlign=middle;whiteSpace=wrap;rounded=0;fontSize=12;" parent="1" vertex="1">
                    <mxGeometry x="554.44" y="630" width="81.22" height="30" as="geometry"/>
                </mxCell>
                <mxCell id="9YF9n_oOePTZYvX8SAIh-11" value="" style="group" parent="1" vertex="1" connectable="0">
                    <mxGeometry x="121.87755102040818" y="355.93092935852525" width="63.67346938775511" height="14.825761255848438" as="geometry"/>
                </mxCell>
                <mxCell id="9YF9n_oOePTZYvX8SAIh-12" value="" style="endArrow=none;html=1;rounded=0;" parent="9YF9n_oOePTZYvX8SAIh-11" edge="1">
                    <mxGeometry width="50" height="50" relative="1" as="geometry">
                        <mxPoint as="sourcePoint"/>
                        <mxPoint x="63.67346938775511" as="targetPoint"/>
                    </mxGeometry>
                </mxCell>
                <mxCell id="9YF9n_oOePTZYvX8SAIh-13" value="" style="endArrow=none;html=1;rounded=0;" parent="9YF9n_oOePTZYvX8SAIh-11" edge="1">
                    <mxGeometry width="50" height="50" relative="1" as="geometry">
                        <mxPoint x="63.67346938775511" y="14.825761255848438" as="sourcePoint"/>
                        <mxPoint x="63.67346938775511" as="targetPoint"/>
                    </mxGeometry>
                </mxCell>
                <mxCell id="9YF9n_oOePTZYvX8SAIh-14" value="" style="endArrow=none;html=1;rounded=0;" parent="9YF9n_oOePTZYvX8SAIh-11" edge="1">
                    <mxGeometry width="50" height="50" relative="1" as="geometry">
                        <mxPoint y="14.825761255848438" as="sourcePoint"/>
                        <mxPoint x="63.67346938775511" y="14.825761255848438" as="targetPoint"/>
                    </mxGeometry>
                </mxCell>
                <mxCell id="9YF9n_oOePTZYvX8SAIh-15" value="" style="endArrow=none;html=1;rounded=0;" parent="9YF9n_oOePTZYvX8SAIh-11" edge="1">
                    <mxGeometry width="50" height="50" relative="1" as="geometry">
                        <mxPoint x="47.75510204081633" y="14.825761255848438" as="sourcePoint"/>
                        <mxPoint x="47.75510204081633" as="targetPoint"/>
                        <Array as="points">
                            <mxPoint x="47.75510204081633" y="14.825761255848438"/>
                        </Array>
                    </mxGeometry>
                </mxCell>
                <mxCell id="9YF9n_oOePTZYvX8SAIh-16" value="" style="endArrow=none;html=1;rounded=0;" parent="9YF9n_oOePTZYvX8SAIh-11" edge="1">
                    <mxGeometry width="50" height="50" relative="1" as="geometry">
                        <mxPoint x="31.836734693877556" y="14.825761255848438" as="sourcePoint"/>
                        <mxPoint x="31.836734693877556" as="targetPoint"/>
                    </mxGeometry>
                </mxCell>
                <mxCell id="9YF9n_oOePTZYvX8SAIh-17" value="" style="endArrow=none;html=1;rounded=0;" parent="9YF9n_oOePTZYvX8SAIh-11" edge="1">
                    <mxGeometry width="50" height="50" relative="1" as="geometry">
                        <mxPoint x="15.918367346938778" y="14.825761255848438" as="sourcePoint"/>
                        <mxPoint x="15.918367346938778" as="targetPoint"/>
                    </mxGeometry>
                </mxCell>
                <mxCell id="9YF9n_oOePTZYvX8SAIh-21" value="" style="endArrow=openThin;html=1;rounded=0;startArrow=none;startFill=0;endFill=0;" parent="1" edge="1">
                    <mxGeometry width="50" height="50" relative="1" as="geometry">
                        <mxPoint x="58.204081632653065" y="364.3816132743589" as="sourcePoint"/>
                        <mxPoint x="121.87755102040818" y="364.02579500421854" as="targetPoint"/>
                    </mxGeometry>
                </mxCell>
                <mxCell id="9YF9n_oOePTZYvX8SAIh-26" value="Biglietteria" style="text;html=1;align=center;verticalAlign=middle;whiteSpace=wrap;rounded=0;fontSize=12;" parent="1" vertex="1">
                    <mxGeometry x="107.94897959183675" y="415.41188351698923" width="95.51020408163266" height="29.651522511696875" as="geometry"/>
                </mxCell>
                <mxCell id="9YF9n_oOePTZYvX8SAIh-27" value="" style="group" parent="1" vertex="1" connectable="0">
                    <mxGeometry x="265.14285714285717" y="355.93092935852525" width="63.67346938775511" height="14.825761255848438" as="geometry"/>
                </mxCell>
                <mxCell id="9YF9n_oOePTZYvX8SAIh-28" value="" style="endArrow=none;html=1;rounded=0;" parent="9YF9n_oOePTZYvX8SAIh-27" edge="1">
                    <mxGeometry width="50" height="50" relative="1" as="geometry">
                        <mxPoint as="sourcePoint"/>
                        <mxPoint x="63.67346938775511" as="targetPoint"/>
                    </mxGeometry>
                </mxCell>
                <mxCell id="9YF9n_oOePTZYvX8SAIh-29" value="" style="endArrow=none;html=1;rounded=0;" parent="9YF9n_oOePTZYvX8SAIh-27" edge="1">
                    <mxGeometry width="50" height="50" relative="1" as="geometry">
                        <mxPoint x="63.67346938775511" y="14.825761255848438" as="sourcePoint"/>
                        <mxPoint x="63.67346938775511" as="targetPoint"/>
                    </mxGeometry>
                </mxCell>
                <mxCell id="9YF9n_oOePTZYvX8SAIh-30" value="" style="endArrow=none;html=1;rounded=0;" parent="9YF9n_oOePTZYvX8SAIh-27" edge="1">
                    <mxGeometry width="50" height="50" relative="1" as="geometry">
                        <mxPoint y="14.825761255848438" as="sourcePoint"/>
                        <mxPoint x="63.67346938775511" y="14.825761255848438" as="targetPoint"/>
                    </mxGeometry>
                </mxCell>
                <mxCell id="9YF9n_oOePTZYvX8SAIh-31" value="" style="endArrow=none;html=1;rounded=0;" parent="9YF9n_oOePTZYvX8SAIh-27" edge="1">
                    <mxGeometry width="50" height="50" relative="1" as="geometry">
                        <mxPoint x="47.75510204081633" y="14.825761255848438" as="sourcePoint"/>
                        <mxPoint x="47.75510204081633" as="targetPoint"/>
                    </mxGeometry>
                </mxCell>
                <mxCell id="9YF9n_oOePTZYvX8SAIh-32" value="" style="endArrow=none;html=1;rounded=0;" parent="9YF9n_oOePTZYvX8SAIh-27" edge="1">
                    <mxGeometry width="50" height="50" relative="1" as="geometry">
                        <mxPoint x="31.836734693877556" y="14.825761255848438" as="sourcePoint"/>
                        <mxPoint x="31.836734693877556" as="targetPoint"/>
                    </mxGeometry>
                </mxCell>
                <mxCell id="9YF9n_oOePTZYvX8SAIh-33" value="" style="endArrow=none;html=1;rounded=0;" parent="9YF9n_oOePTZYvX8SAIh-27" edge="1">
                    <mxGeometry width="50" height="50" relative="1" as="geometry">
                        <mxPoint x="15.918367346938778" y="14.825761255848438" as="sourcePoint"/>
                        <mxPoint x="15.918367346938778" as="targetPoint"/>
                    </mxGeometry>
                </mxCell>
                <mxCell id="9YF9n_oOePTZYvX8SAIh-35" value="Controllo Biglietti" style="text;html=1;align=center;verticalAlign=middle;whiteSpace=wrap;rounded=0;fontSize=12;" parent="1" vertex="1">
                    <mxGeometry x="249.2244897959184" y="415.41188351698923" width="95.51020408163266" height="29.651522511696875" as="geometry"/>
                </mxCell>
                <mxCell id="9YF9n_oOePTZYvX8SAIh-41" value="" style="group" parent="1" vertex="1" connectable="0">
                    <mxGeometry x="328.8163265306123" y="324.4261866898473" width="17.908163265306122" height="75.98202643622324" as="geometry"/>
                </mxCell>
                <mxCell id="9YF9n_oOePTZYvX8SAIh-36" value="" style="ellipse;whiteSpace=wrap;html=1;aspect=fixed;strokeWidth=0;" parent="9YF9n_oOePTZYvX8SAIh-41" vertex="1">
                    <mxGeometry width="16.678981412829494" height="16.678981412829494" as="geometry"/>
                </mxCell>
                <mxCell id="9YF9n_oOePTZYvX8SAIh-37" value="" style="ellipse;whiteSpace=wrap;html=1;aspect=fixed;strokeWidth=0;" parent="9YF9n_oOePTZYvX8SAIh-41" vertex="1">
                    <mxGeometry y="16.678981412829494" width="16.678981412829494" height="16.678981412829494" as="geometry"/>
                </mxCell>
                <mxCell id="9YF9n_oOePTZYvX8SAIh-38" value="" style="ellipse;whiteSpace=wrap;html=1;aspect=fixed;strokeWidth=0;direction=south;" parent="9YF9n_oOePTZYvX8SAIh-41" vertex="1">
                    <mxGeometry y="59.30304502339375" width="16.678981412829494" height="16.678981412829494" as="geometry"/>
                </mxCell>
                <mxCell id="9YF9n_oOePTZYvX8SAIh-39" value="" style="endArrow=none;dashed=1;html=1;dashPattern=1 3;strokeWidth=2;rounded=0;exitX=0;exitY=0.5;exitDx=0;exitDy=0;" parent="9YF9n_oOePTZYvX8SAIh-41" source="9YF9n_oOePTZYvX8SAIh-38" edge="1">
                    <mxGeometry width="50" height="50" relative="1" as="geometry">
                        <mxPoint x="8.691428571428583" y="48.18372408150743" as="sourcePoint"/>
                        <mxPoint x="8.691428571428583" y="33.35796282565899" as="targetPoint"/>
                    </mxGeometry>
                </mxCell>
                <mxCell id="9YF9n_oOePTZYvX8SAIh-42" value="" style="group" parent="1" vertex="1" connectable="0">
                    <mxGeometry x="185.55102040816328" y="325.3602096489658" width="17.908163265306122" height="75.98202643622324" as="geometry"/>
                </mxCell>
                <mxCell id="9YF9n_oOePTZYvX8SAIh-43" value="" style="ellipse;whiteSpace=wrap;html=1;aspect=fixed;strokeWidth=0;" parent="9YF9n_oOePTZYvX8SAIh-42" vertex="1">
                    <mxGeometry width="16.678981412829494" height="16.678981412829494" as="geometry"/>
                </mxCell>
                <mxCell id="9YF9n_oOePTZYvX8SAIh-44" value="" style="ellipse;whiteSpace=wrap;html=1;aspect=fixed;strokeWidth=0;" parent="9YF9n_oOePTZYvX8SAIh-42" vertex="1">
                    <mxGeometry y="16.678981412829494" width="16.678981412829494" height="16.678981412829494" as="geometry"/>
                </mxCell>
                <mxCell id="9YF9n_oOePTZYvX8SAIh-45" value="" style="ellipse;whiteSpace=wrap;html=1;aspect=fixed;strokeWidth=0;direction=south;" parent="9YF9n_oOePTZYvX8SAIh-42" vertex="1">
                    <mxGeometry y="59.30304502339375" width="16.678981412829494" height="16.678981412829494" as="geometry"/>
                </mxCell>
                <mxCell id="9YF9n_oOePTZYvX8SAIh-46" value="" style="endArrow=none;dashed=1;html=1;dashPattern=1 3;strokeWidth=2;rounded=0;exitX=0;exitY=0.5;exitDx=0;exitDy=0;" parent="9YF9n_oOePTZYvX8SAIh-42" source="9YF9n_oOePTZYvX8SAIh-45" edge="1">
                    <mxGeometry width="50" height="50" relative="1" as="geometry">
                        <mxPoint x="8.691428571428583" y="48.18372408150743" as="sourcePoint"/>
                        <mxPoint x="8.691428571428583" y="33.35796282565899" as="targetPoint"/>
                    </mxGeometry>
                </mxCell>
                <mxCell id="9YF9n_oOePTZYvX8SAIh-47" value="" style="endArrow=openThin;html=1;rounded=0;endFill=0;" parent="1" edge="1">
                    <mxGeometry width="50" height="50" relative="1" as="geometry">
                        <mxPoint x="203.4591836734694" y="363.3438099864495" as="sourcePoint"/>
                        <mxPoint x="265.14285714285717" y="363.58102216654305" as="targetPoint"/>
                    </mxGeometry>
                </mxCell>
                <mxCell id="9YF9n_oOePTZYvX8SAIh-52" value="" style="group" parent="1" vertex="1" connectable="0">
                    <mxGeometry x="89.77020408163266" y="311.45364559097993" width="143.53591836734697" height="44.477283767545316" as="geometry"/>
                </mxCell>
                <mxCell id="9YF9n_oOePTZYvX8SAIh-49" value="" style="endArrow=none;html=1;rounded=0;" parent="9YF9n_oOePTZYvX8SAIh-52" edge="1">
                    <mxGeometry width="50" height="50" relative="1" as="geometry">
                        <mxPoint y="51.89016439546953" as="sourcePoint"/>
                        <mxPoint y="7.412880627924219" as="targetPoint"/>
                    </mxGeometry>
                </mxCell>
                <mxCell id="9YF9n_oOePTZYvX8SAIh-50" value="" style="endArrow=none;html=1;rounded=0;" parent="9YF9n_oOePTZYvX8SAIh-52" edge="1">
                    <mxGeometry width="50" height="50" relative="1" as="geometry">
                        <mxPoint x="0.27061224489796193" y="7.412880627924219" as="sourcePoint"/>
                        <mxPoint x="143.53591836734697" y="7.412880627924219" as="targetPoint"/>
                    </mxGeometry>
                </mxCell>
                <mxCell id="9YF9n_oOePTZYvX8SAIh-302" value="p_on" style="edgeLabel;html=1;align=center;verticalAlign=middle;resizable=0;points=[];" parent="9YF9n_oOePTZYvX8SAIh-50" vertex="1" connectable="0">
                    <mxGeometry x="-0.8074" y="-1" relative="1" as="geometry">
                        <mxPoint x="2" y="-10" as="offset"/>
                    </mxGeometry>
                </mxCell>
                <mxCell id="9YF9n_oOePTZYvX8SAIh-51" value="" style="endArrow=none;html=1;rounded=0;startArrow=openThin;startFill=0;" parent="9YF9n_oOePTZYvX8SAIh-52" edge="1">
                    <mxGeometry width="50" height="50" relative="1" as="geometry">
                        <mxPoint x="143.53591836734697" y="51.89016439546953" as="sourcePoint"/>
                        <mxPoint x="143.53591836734697" y="7.412880627924219" as="targetPoint"/>
                    </mxGeometry>
                </mxCell>
                <mxCell id="9YF9n_oOePTZYvX8SAIh-54" value="" style="group" parent="1" vertex="1" connectable="0">
                    <mxGeometry x="306.56408163265303" y="120" width="17.908163265306122" height="75.98202643622324" as="geometry"/>
                </mxCell>
                <mxCell id="9YF9n_oOePTZYvX8SAIh-55" value="" style="ellipse;whiteSpace=wrap;html=1;aspect=fixed;strokeWidth=0;" parent="9YF9n_oOePTZYvX8SAIh-54" vertex="1">
                    <mxGeometry width="16.678981412829494" height="16.678981412829494" as="geometry"/>
                </mxCell>
                <mxCell id="9YF9n_oOePTZYvX8SAIh-56" value="" style="ellipse;whiteSpace=wrap;html=1;aspect=fixed;strokeWidth=0;" parent="9YF9n_oOePTZYvX8SAIh-54" vertex="1">
                    <mxGeometry y="16.678981412829494" width="16.678981412829494" height="16.678981412829494" as="geometry"/>
                </mxCell>
                <mxCell id="9YF9n_oOePTZYvX8SAIh-57" value="" style="ellipse;whiteSpace=wrap;html=1;aspect=fixed;strokeWidth=0;direction=south;" parent="9YF9n_oOePTZYvX8SAIh-54" vertex="1">
                    <mxGeometry y="59.30304502339375" width="16.678981412829494" height="16.678981412829494" as="geometry"/>
                </mxCell>
                <mxCell id="9YF9n_oOePTZYvX8SAIh-58" value="" style="endArrow=none;dashed=1;html=1;dashPattern=1 3;strokeWidth=2;rounded=0;exitX=0;exitY=0.5;exitDx=0;exitDy=0;" parent="9YF9n_oOePTZYvX8SAIh-54" source="9YF9n_oOePTZYvX8SAIh-57" edge="1">
                    <mxGeometry width="50" height="50" relative="1" as="geometry">
                        <mxPoint x="8.691428571428583" y="48.18372408150743" as="sourcePoint"/>
                        <mxPoint x="8.691428571428583" y="33.35796282565899" as="targetPoint"/>
                    </mxGeometry>
                </mxCell>
                <mxCell id="9YF9n_oOePTZYvX8SAIh-139" value="" style="group" parent="1" vertex="1" connectable="0">
                    <mxGeometry x="220" y="208.95456753509063" width="65.26530612244899" height="31.14892439853758" as="geometry"/>
                </mxCell>
                <mxCell id="9YF9n_oOePTZYvX8SAIh-140" value="" style="endArrow=openThin;html=1;rounded=0;endFill=0;" parent="9YF9n_oOePTZYvX8SAIh-139" edge="1">
                    <mxGeometry width="50" height="50" relative="1" as="geometry">
                        <mxPoint x="33.42857142857143" y="0.014825761255856022" as="sourcePoint"/>
                        <mxPoint x="65.26530612244899" as="targetPoint"/>
                    </mxGeometry>
                </mxCell>
                <mxCell id="9YF9n_oOePTZYvX8SAIh-141" value="" style="endArrow=openThin;html=1;rounded=0;endFill=0;" parent="9YF9n_oOePTZYvX8SAIh-139" edge="1">
                    <mxGeometry width="50" height="50" relative="1" as="geometry">
                        <mxPoint x="33.42857142857143" y="31.14892439853758" as="sourcePoint"/>
                        <mxPoint x="65.26530612244899" y="31.134098637281728" as="targetPoint"/>
                    </mxGeometry>
                </mxCell>
                <mxCell id="9YF9n_oOePTZYvX8SAIh-142" value="" style="endArrow=none;html=1;rounded=0;" parent="9YF9n_oOePTZYvX8SAIh-139" edge="1">
                    <mxGeometry width="50" height="50" relative="1" as="geometry">
                        <mxPoint x="33.42857142857143" y="30.585545470815326" as="sourcePoint"/>
                        <mxPoint x="33.42857142857143" y="0.9340229591184501" as="targetPoint"/>
                    </mxGeometry>
                </mxCell>
                <mxCell id="9YF9n_oOePTZYvX8SAIh-143" value="" style="endArrow=none;html=1;rounded=0;" parent="9YF9n_oOePTZYvX8SAIh-139" edge="1">
                    <mxGeometry width="50" height="50" relative="1" as="geometry">
                        <mxPoint y="15.611526602408413" as="sourcePoint"/>
                        <mxPoint x="31.836734693877556" y="15.611526602408413" as="targetPoint"/>
                    </mxGeometry>
                </mxCell>
                <mxCell id="9YF9n_oOePTZYvX8SAIh-154" value="" style="endArrow=none;html=1;rounded=0;endFill=0;" parent="1" edge="1">
                    <mxGeometry width="50" height="50" relative="1" as="geometry">
                        <mxPoint x="346.72448979591843" y="362.17257484723746" as="sourcePoint"/>
                        <mxPoint x="561.2244897959184" y="362.03914299593487" as="targetPoint"/>
                    </mxGeometry>
                </mxCell>
                <mxCell id="9YF9n_oOePTZYvX8SAIh-304" value="p_a" style="edgeLabel;html=1;align=center;verticalAlign=middle;resizable=0;points=[];" parent="9YF9n_oOePTZYvX8SAIh-154" vertex="1" connectable="0">
                    <mxGeometry x="0.7526" y="-2" relative="1" as="geometry">
                        <mxPoint x="-3" y="-10" as="offset"/>
                    </mxGeometry>
                </mxCell>
                <mxCell id="9YF9n_oOePTZYvX8SAIh-190" value="" style="endArrow=none;html=1;rounded=0;" parent="1" edge="1">
                    <mxGeometry width="50" height="50" relative="1" as="geometry">
                        <mxPoint x="497.5510204081633" y="608.146779843019" as="sourcePoint"/>
                        <mxPoint x="498" y="110" as="targetPoint"/>
                    </mxGeometry>
                </mxCell>
                <mxCell id="9YF9n_oOePTZYvX8SAIh-303" value="p_r" style="edgeLabel;html=1;align=center;verticalAlign=middle;resizable=0;points=[];" parent="9YF9n_oOePTZYvX8SAIh-190" vertex="1" connectable="0">
                    <mxGeometry x="0.4784" relative="1" as="geometry">
                        <mxPoint x="-20" y="1" as="offset"/>
                    </mxGeometry>
                </mxCell>
                <mxCell id="9YF9n_oOePTZYvX8SAIh-305" value="p_b" style="edgeLabel;html=1;align=center;verticalAlign=middle;resizable=0;points=[];" parent="9YF9n_oOePTZYvX8SAIh-190" vertex="1" connectable="0">
                    <mxGeometry x="-0.5039" y="-2" relative="1" as="geometry">
                        <mxPoint x="-22" as="offset"/>
                    </mxGeometry>
                </mxCell>
                <mxCell id="9YF9n_oOePTZYvX8SAIh-191" value="" style="endArrow=none;html=1;rounded=0;endFill=0;startArrow=openThin;startFill=0;" parent="1" edge="1">
                    <mxGeometry width="50" height="50" relative="1" as="geometry">
                        <mxPoint x="465.7142857142858" y="430.23764477283765" as="sourcePoint"/>
                        <mxPoint x="465.7142857142858" y="362.03914299593487" as="targetPoint"/>
                    </mxGeometry>
                </mxCell>
                <mxCell id="9YF9n_oOePTZYvX8SAIh-306" value="p_e" style="edgeLabel;html=1;align=center;verticalAlign=middle;resizable=0;points=[];" parent="9YF9n_oOePTZYvX8SAIh-191" vertex="1" connectable="0">
                    <mxGeometry x="0.2754" y="-2" relative="1" as="geometry">
                        <mxPoint x="-22" y="5" as="offset"/>
                    </mxGeometry>
                </mxCell>
                <mxCell id="9YF9n_oOePTZYvX8SAIh-192" value="" style="endArrow=none;html=1;rounded=0;endFill=0;startArrow=openThin;startFill=0;" parent="1" edge="1">
                    <mxGeometry width="50" height="50" relative="1" as="geometry">
                        <mxPoint x="402.04081632653066" y="362.9731659550533" as="sourcePoint"/>
                        <mxPoint x="402.04081632653066" y="60.70554547081532" as="targetPoint"/>
                    </mxGeometry>
                </mxCell>
                <mxCell id="9YF9n_oOePTZYvX8SAIh-201" value="" style="group" parent="1" vertex="1" connectable="0">
                    <mxGeometry x="561.2244897959184" y="104.07089714417201" width="81.58163265306123" height="16.678981412829504" as="geometry"/>
                </mxCell>
                <mxCell id="9YF9n_oOePTZYvX8SAIh-10" value="" style="group" parent="9YF9n_oOePTZYvX8SAIh-201" vertex="1" connectable="0">
                    <mxGeometry y="1.8532201569810653" width="63.67346938775511" height="14.825761255848438" as="geometry"/>
                </mxCell>
                <mxCell id="9YF9n_oOePTZYvX8SAIh-1" value="" style="endArrow=none;html=1;rounded=0;" parent="9YF9n_oOePTZYvX8SAIh-10" edge="1">
                    <mxGeometry width="50" height="50" relative="1" as="geometry">
                        <mxPoint as="sourcePoint"/>
                        <mxPoint x="63.67346938775511" as="targetPoint"/>
                    </mxGeometry>
                </mxCell>
                <mxCell id="9YF9n_oOePTZYvX8SAIh-2" value="" style="endArrow=none;html=1;rounded=0;" parent="9YF9n_oOePTZYvX8SAIh-10" edge="1">
                    <mxGeometry width="50" height="50" relative="1" as="geometry">
                        <mxPoint x="63.67346938775511" y="14.825761255848438" as="sourcePoint"/>
                        <mxPoint x="63.67346938775511" as="targetPoint"/>
                    </mxGeometry>
                </mxCell>
                <mxCell id="9YF9n_oOePTZYvX8SAIh-3" value="" style="endArrow=none;html=1;rounded=0;" parent="9YF9n_oOePTZYvX8SAIh-10" edge="1">
                    <mxGeometry width="50" height="50" relative="1" as="geometry">
                        <mxPoint y="14.825761255848438" as="sourcePoint"/>
                        <mxPoint x="63.67346938775511" y="14.825761255848438" as="targetPoint"/>
                    </mxGeometry>
                </mxCell>
                <mxCell id="9YF9n_oOePTZYvX8SAIh-4" value="" style="endArrow=none;html=1;rounded=0;" parent="9YF9n_oOePTZYvX8SAIh-10" edge="1">
                    <mxGeometry width="50" height="50" relative="1" as="geometry">
                        <mxPoint x="47.75510204081633" y="14.825761255848438" as="sourcePoint"/>
                        <mxPoint x="47.75510204081633" as="targetPoint"/>
                    </mxGeometry>
                </mxCell>
                <mxCell id="9YF9n_oOePTZYvX8SAIh-5" value="" style="endArrow=none;html=1;rounded=0;" parent="9YF9n_oOePTZYvX8SAIh-10" edge="1">
                    <mxGeometry width="50" height="50" relative="1" as="geometry">
                        <mxPoint x="31.836734693877556" y="14.825761255848438" as="sourcePoint"/>
                        <mxPoint x="31.836734693877556" as="targetPoint"/>
                    </mxGeometry>
                </mxCell>
                <mxCell id="9YF9n_oOePTZYvX8SAIh-6" value="" style="endArrow=none;html=1;rounded=0;" parent="9YF9n_oOePTZYvX8SAIh-10" edge="1">
                    <mxGeometry width="50" height="50" relative="1" as="geometry">
                        <mxPoint x="15.918367346938778" y="14.825761255848438" as="sourcePoint"/>
                        <mxPoint x="15.918367346938778" as="targetPoint"/>
                    </mxGeometry>
                </mxCell>
                <mxCell id="9YF9n_oOePTZYvX8SAIh-197" value="" style="ellipse;whiteSpace=wrap;html=1;aspect=fixed;strokeWidth=0;" parent="9YF9n_oOePTZYvX8SAIh-201" vertex="1">
                    <mxGeometry x="63.67346938775511" width="16.678981412829494" height="16.678981412829494" as="geometry"/>
                </mxCell>
                <mxCell id="9YF9n_oOePTZYvX8SAIh-202" value="" style="group" parent="1" vertex="1" connectable="0">
                    <mxGeometry x="561.2244897959184" y="150.40140106869836" width="63.67346938775511" height="14.825761255848438" as="geometry"/>
                </mxCell>
                <mxCell id="9YF9n_oOePTZYvX8SAIh-203" value="" style="endArrow=none;html=1;rounded=0;" parent="9YF9n_oOePTZYvX8SAIh-202" edge="1">
                    <mxGeometry width="50" height="50" relative="1" as="geometry">
                        <mxPoint as="sourcePoint"/>
                        <mxPoint x="63.67346938775511" as="targetPoint"/>
                    </mxGeometry>
                </mxCell>
                <mxCell id="9YF9n_oOePTZYvX8SAIh-204" value="" style="endArrow=none;html=1;rounded=0;" parent="9YF9n_oOePTZYvX8SAIh-202" edge="1">
                    <mxGeometry width="50" height="50" relative="1" as="geometry">
                        <mxPoint x="63.67346938775511" y="14.825761255848438" as="sourcePoint"/>
                        <mxPoint x="63.67346938775511" as="targetPoint"/>
                    </mxGeometry>
                </mxCell>
                <mxCell id="9YF9n_oOePTZYvX8SAIh-205" value="" style="endArrow=none;html=1;rounded=0;" parent="9YF9n_oOePTZYvX8SAIh-202" edge="1">
                    <mxGeometry width="50" height="50" relative="1" as="geometry">
                        <mxPoint y="14.825761255848438" as="sourcePoint"/>
                        <mxPoint x="63.67346938775511" y="14.825761255848438" as="targetPoint"/>
                    </mxGeometry>
                </mxCell>
                <mxCell id="9YF9n_oOePTZYvX8SAIh-206" value="" style="endArrow=none;html=1;rounded=0;" parent="9YF9n_oOePTZYvX8SAIh-202" edge="1">
                    <mxGeometry width="50" height="50" relative="1" as="geometry">
                        <mxPoint x="47.75510204081633" y="14.825761255848438" as="sourcePoint"/>
                        <mxPoint x="47.75510204081633" as="targetPoint"/>
                    </mxGeometry>
                </mxCell>
                <mxCell id="9YF9n_oOePTZYvX8SAIh-207" value="" style="endArrow=none;html=1;rounded=0;" parent="9YF9n_oOePTZYvX8SAIh-202" edge="1">
                    <mxGeometry width="50" height="50" relative="1" as="geometry">
                        <mxPoint x="31.836734693877556" y="14.825761255848438" as="sourcePoint"/>
                        <mxPoint x="31.836734693877556" as="targetPoint"/>
                    </mxGeometry>
                </mxCell>
                <mxCell id="9YF9n_oOePTZYvX8SAIh-208" value="" style="endArrow=none;html=1;rounded=0;" parent="9YF9n_oOePTZYvX8SAIh-202" edge="1">
                    <mxGeometry width="50" height="50" relative="1" as="geometry">
                        <mxPoint x="15.918367346938778" y="14.825761255848438" as="sourcePoint"/>
                        <mxPoint x="15.918367346938778" as="targetPoint"/>
                    </mxGeometry>
                </mxCell>
                <mxCell id="9YF9n_oOePTZYvX8SAIh-209" value="" style="ellipse;whiteSpace=wrap;html=1;aspect=fixed;strokeWidth=0;" parent="1" vertex="1">
                    <mxGeometry x="624.8979591836735" y="148.5481809117173" width="16.678981412829494" height="16.678981412829494" as="geometry"/>
                </mxCell>
                <mxCell id="9YF9n_oOePTZYvX8SAIh-211" value="" style="endArrow=none;html=1;rounded=0;" parent="1" edge="1">
                    <mxGeometry width="50" height="50" relative="1" as="geometry">
                        <mxPoint x="561.2244897959184" y="415.41188351698923" as="sourcePoint"/>
                        <mxPoint x="561.2244897959184" y="311.6315547260502" as="targetPoint"/>
                    </mxGeometry>
                </mxCell>
                <mxCell id="9YF9n_oOePTZYvX8SAIh-212" value="" style="group" parent="1" vertex="1" connectable="0">
                    <mxGeometry x="561.2244897959184" y="279.948902922302" width="146.84693877551024" height="75.98202643622324" as="geometry"/>
                </mxCell>
                <mxCell id="9YF9n_oOePTZYvX8SAIh-138" value="" style="group" parent="9YF9n_oOePTZYvX8SAIh-212" vertex="1" connectable="0">
                    <mxGeometry y="21.4825280597244" width="65.265306122449" height="31.14892439853758" as="geometry"/>
                </mxCell>
                <mxCell id="9YF9n_oOePTZYvX8SAIh-134" value="" style="endArrow=openThin;html=1;rounded=0;endFill=0;" parent="9YF9n_oOePTZYvX8SAIh-138" edge="1">
                    <mxGeometry width="50" height="50" relative="1" as="geometry">
                        <mxPoint x="33.42857142857144" y="0.014825761255856022" as="sourcePoint"/>
                        <mxPoint x="65.265306122449" as="targetPoint"/>
                    </mxGeometry>
                </mxCell>
                <mxCell id="9YF9n_oOePTZYvX8SAIh-135" value="" style="endArrow=openThin;html=1;rounded=0;endFill=0;" parent="9YF9n_oOePTZYvX8SAIh-138" edge="1">
                    <mxGeometry width="50" height="50" relative="1" as="geometry">
                        <mxPoint x="33.42857142857144" y="31.14892439853758" as="sourcePoint"/>
                        <mxPoint x="65.265306122449" y="31.134098637281728" as="targetPoint"/>
                    </mxGeometry>
                </mxCell>
                <mxCell id="9YF9n_oOePTZYvX8SAIh-136" value="" style="endArrow=none;html=1;rounded=0;" parent="9YF9n_oOePTZYvX8SAIh-138" edge="1">
                    <mxGeometry width="50" height="50" relative="1" as="geometry">
                        <mxPoint x="33.42857142857144" y="30.585545470815326" as="sourcePoint"/>
                        <mxPoint x="33.42857142857144" y="0.9340229591184501" as="targetPoint"/>
                    </mxGeometry>
                </mxCell>
                <mxCell id="9YF9n_oOePTZYvX8SAIh-137" value="" style="endArrow=none;html=1;rounded=0;" parent="9YF9n_oOePTZYvX8SAIh-138" edge="1">
                    <mxGeometry width="50" height="50" relative="1" as="geometry">
                        <mxPoint y="15.611526602408413" as="sourcePoint"/>
                        <mxPoint x="31.83673469387756" y="15.611526602408413" as="targetPoint"/>
                    </mxGeometry>
                </mxCell>
                <mxCell id="9YF9n_oOePTZYvX8SAIh-156" value="" style="group" parent="9YF9n_oOePTZYvX8SAIh-212" vertex="1" connectable="0">
                    <mxGeometry x="65.265306122449" width="81.58163265306125" height="75.98202643622324" as="geometry"/>
                </mxCell>
                <mxCell id="9YF9n_oOePTZYvX8SAIh-157" value="" style="group" parent="9YF9n_oOePTZYvX8SAIh-156" vertex="1" connectable="0">
                    <mxGeometry y="15.759784214966883" width="63.67346938775512" height="14.825761255848438" as="geometry"/>
                </mxCell>
                <mxCell id="9YF9n_oOePTZYvX8SAIh-158" value="" style="endArrow=none;html=1;rounded=0;" parent="9YF9n_oOePTZYvX8SAIh-157" edge="1">
                    <mxGeometry width="50" height="50" relative="1" as="geometry">
                        <mxPoint as="sourcePoint"/>
                        <mxPoint x="63.67346938775512" as="targetPoint"/>
                    </mxGeometry>
                </mxCell>
                <mxCell id="9YF9n_oOePTZYvX8SAIh-159" value="" style="endArrow=none;html=1;rounded=0;" parent="9YF9n_oOePTZYvX8SAIh-157" edge="1">
                    <mxGeometry width="50" height="50" relative="1" as="geometry">
                        <mxPoint x="63.67346938775512" y="14.825761255848438" as="sourcePoint"/>
                        <mxPoint x="63.67346938775512" as="targetPoint"/>
                    </mxGeometry>
                </mxCell>
                <mxCell id="9YF9n_oOePTZYvX8SAIh-160" value="" style="endArrow=none;html=1;rounded=0;" parent="9YF9n_oOePTZYvX8SAIh-157" edge="1">
                    <mxGeometry width="50" height="50" relative="1" as="geometry">
                        <mxPoint y="14.825761255848438" as="sourcePoint"/>
                        <mxPoint x="63.67346938775512" y="14.825761255848438" as="targetPoint"/>
                    </mxGeometry>
                </mxCell>
                <mxCell id="9YF9n_oOePTZYvX8SAIh-161" value="" style="endArrow=none;html=1;rounded=0;" parent="9YF9n_oOePTZYvX8SAIh-157" edge="1">
                    <mxGeometry width="50" height="50" relative="1" as="geometry">
                        <mxPoint x="47.75510204081634" y="14.825761255848438" as="sourcePoint"/>
                        <mxPoint x="47.75510204081634" as="targetPoint"/>
                    </mxGeometry>
                </mxCell>
                <mxCell id="9YF9n_oOePTZYvX8SAIh-162" value="" style="endArrow=none;html=1;rounded=0;" parent="9YF9n_oOePTZYvX8SAIh-157" edge="1">
                    <mxGeometry width="50" height="50" relative="1" as="geometry">
                        <mxPoint x="31.83673469387756" y="14.825761255848438" as="sourcePoint"/>
                        <mxPoint x="31.83673469387756" as="targetPoint"/>
                    </mxGeometry>
                </mxCell>
                <mxCell id="9YF9n_oOePTZYvX8SAIh-163" value="" style="endArrow=none;html=1;rounded=0;" parent="9YF9n_oOePTZYvX8SAIh-157" edge="1">
                    <mxGeometry width="50" height="50" relative="1" as="geometry">
                        <mxPoint x="15.91836734693878" y="14.825761255848438" as="sourcePoint"/>
                        <mxPoint x="15.91836734693878" as="targetPoint"/>
                    </mxGeometry>
                </mxCell>
                <mxCell id="9YF9n_oOePTZYvX8SAIh-164" value="" style="group" parent="9YF9n_oOePTZYvX8SAIh-156" vertex="1" connectable="0">
                    <mxGeometry y="46.33050392452637" width="63.67346938775512" height="14.825761255848438" as="geometry"/>
                </mxCell>
                <mxCell id="9YF9n_oOePTZYvX8SAIh-165" value="" style="endArrow=none;html=1;rounded=0;" parent="9YF9n_oOePTZYvX8SAIh-164" edge="1">
                    <mxGeometry width="50" height="50" relative="1" as="geometry">
                        <mxPoint as="sourcePoint"/>
                        <mxPoint x="63.67346938775512" as="targetPoint"/>
                    </mxGeometry>
                </mxCell>
                <mxCell id="9YF9n_oOePTZYvX8SAIh-166" value="" style="endArrow=none;html=1;rounded=0;" parent="9YF9n_oOePTZYvX8SAIh-164" edge="1">
                    <mxGeometry width="50" height="50" relative="1" as="geometry">
                        <mxPoint x="63.67346938775512" y="14.825761255848438" as="sourcePoint"/>
                        <mxPoint x="63.67346938775512" as="targetPoint"/>
                    </mxGeometry>
                </mxCell>
                <mxCell id="9YF9n_oOePTZYvX8SAIh-167" value="" style="endArrow=none;html=1;rounded=0;" parent="9YF9n_oOePTZYvX8SAIh-164" edge="1">
                    <mxGeometry width="50" height="50" relative="1" as="geometry">
                        <mxPoint y="14.825761255848438" as="sourcePoint"/>
                        <mxPoint x="63.67346938775512" y="14.825761255848438" as="targetPoint"/>
                    </mxGeometry>
                </mxCell>
                <mxCell id="9YF9n_oOePTZYvX8SAIh-168" value="" style="endArrow=none;html=1;rounded=0;" parent="9YF9n_oOePTZYvX8SAIh-164" edge="1">
                    <mxGeometry width="50" height="50" relative="1" as="geometry">
                        <mxPoint x="47.75510204081634" y="14.825761255848438" as="sourcePoint"/>
                        <mxPoint x="47.75510204081634" as="targetPoint"/>
                    </mxGeometry>
                </mxCell>
                <mxCell id="9YF9n_oOePTZYvX8SAIh-169" value="" style="endArrow=none;html=1;rounded=0;" parent="9YF9n_oOePTZYvX8SAIh-164" edge="1">
                    <mxGeometry width="50" height="50" relative="1" as="geometry">
                        <mxPoint x="31.83673469387756" y="14.825761255848438" as="sourcePoint"/>
                        <mxPoint x="31.83673469387756" as="targetPoint"/>
                    </mxGeometry>
                </mxCell>
                <mxCell id="9YF9n_oOePTZYvX8SAIh-170" value="" style="endArrow=none;html=1;rounded=0;" parent="9YF9n_oOePTZYvX8SAIh-164" edge="1">
                    <mxGeometry width="50" height="50" relative="1" as="geometry">
                        <mxPoint x="15.91836734693878" y="14.825761255848438" as="sourcePoint"/>
                        <mxPoint x="15.91836734693878" as="targetPoint"/>
                    </mxGeometry>
                </mxCell>
                <mxCell id="9YF9n_oOePTZYvX8SAIh-171" value="" style="group" parent="9YF9n_oOePTZYvX8SAIh-156" vertex="1" connectable="0">
                    <mxGeometry x="63.67346938775512" width="17.908163265306126" height="75.98202643622324" as="geometry"/>
                </mxCell>
                <mxCell id="9YF9n_oOePTZYvX8SAIh-172" value="" style="ellipse;whiteSpace=wrap;html=1;aspect=fixed;strokeWidth=0;" parent="9YF9n_oOePTZYvX8SAIh-171" vertex="1">
                    <mxGeometry width="16.678981412829494" height="16.678981412829494" as="geometry"/>
                </mxCell>
                <mxCell id="9YF9n_oOePTZYvX8SAIh-173" value="" style="ellipse;whiteSpace=wrap;html=1;aspect=fixed;strokeWidth=0;" parent="9YF9n_oOePTZYvX8SAIh-171" vertex="1">
                    <mxGeometry y="16.678981412829494" width="16.678981412829494" height="16.678981412829494" as="geometry"/>
                </mxCell>
                <mxCell id="9YF9n_oOePTZYvX8SAIh-174" value="" style="ellipse;whiteSpace=wrap;html=1;aspect=fixed;strokeWidth=0;direction=south;" parent="9YF9n_oOePTZYvX8SAIh-171" vertex="1">
                    <mxGeometry y="59.30304502339375" width="16.678981412829494" height="16.678981412829494" as="geometry"/>
                </mxCell>
                <mxCell id="9YF9n_oOePTZYvX8SAIh-175" value="" style="endArrow=none;dashed=1;html=1;dashPattern=1 3;strokeWidth=2;rounded=0;exitX=0;exitY=0.5;exitDx=0;exitDy=0;" parent="9YF9n_oOePTZYvX8SAIh-171" source="9YF9n_oOePTZYvX8SAIh-174" edge="1">
                    <mxGeometry width="50" height="50" relative="1" as="geometry">
                        <mxPoint x="8.691428571428586" y="48.18372408150743" as="sourcePoint"/>
                        <mxPoint x="8.691428571428586" y="33.35796282565899" as="targetPoint"/>
                    </mxGeometry>
                </mxCell>
                <mxCell id="9YF9n_oOePTZYvX8SAIh-213" value="" style="group" parent="1" vertex="1" connectable="0">
                    <mxGeometry x="561.2244897959184" y="370.7566906143737" width="146.84693877551024" height="75.98202643622324" as="geometry"/>
                </mxCell>
                <mxCell id="9YF9n_oOePTZYvX8SAIh-80" value="" style="group" parent="9YF9n_oOePTZYvX8SAIh-213" vertex="1" connectable="0">
                    <mxGeometry x="65.265306122449" width="81.58163265306125" height="75.98202643622324" as="geometry"/>
                </mxCell>
                <mxCell id="9YF9n_oOePTZYvX8SAIh-81" value="" style="group" parent="9YF9n_oOePTZYvX8SAIh-80" vertex="1" connectable="0">
                    <mxGeometry y="15.759784214966883" width="63.67346938775512" height="14.825761255848438" as="geometry"/>
                </mxCell>
                <mxCell id="9YF9n_oOePTZYvX8SAIh-82" value="" style="endArrow=none;html=1;rounded=0;" parent="9YF9n_oOePTZYvX8SAIh-81" edge="1">
                    <mxGeometry width="50" height="50" relative="1" as="geometry">
                        <mxPoint as="sourcePoint"/>
                        <mxPoint x="63.67346938775512" as="targetPoint"/>
                    </mxGeometry>
                </mxCell>
                <mxCell id="9YF9n_oOePTZYvX8SAIh-83" value="" style="endArrow=none;html=1;rounded=0;" parent="9YF9n_oOePTZYvX8SAIh-81" edge="1">
                    <mxGeometry width="50" height="50" relative="1" as="geometry">
                        <mxPoint x="63.67346938775512" y="14.825761255848438" as="sourcePoint"/>
                        <mxPoint x="63.67346938775512" as="targetPoint"/>
                    </mxGeometry>
                </mxCell>
                <mxCell id="9YF9n_oOePTZYvX8SAIh-84" value="" style="endArrow=none;html=1;rounded=0;" parent="9YF9n_oOePTZYvX8SAIh-81" edge="1">
                    <mxGeometry width="50" height="50" relative="1" as="geometry">
                        <mxPoint y="14.825761255848438" as="sourcePoint"/>
                        <mxPoint x="63.67346938775512" y="14.825761255848438" as="targetPoint"/>
                    </mxGeometry>
                </mxCell>
                <mxCell id="9YF9n_oOePTZYvX8SAIh-85" value="" style="endArrow=none;html=1;rounded=0;" parent="9YF9n_oOePTZYvX8SAIh-81" edge="1">
                    <mxGeometry width="50" height="50" relative="1" as="geometry">
                        <mxPoint x="47.75510204081634" y="14.825761255848438" as="sourcePoint"/>
                        <mxPoint x="47.75510204081634" as="targetPoint"/>
                    </mxGeometry>
                </mxCell>
                <mxCell id="9YF9n_oOePTZYvX8SAIh-86" value="" style="endArrow=none;html=1;rounded=0;" parent="9YF9n_oOePTZYvX8SAIh-81" edge="1">
                    <mxGeometry width="50" height="50" relative="1" as="geometry">
                        <mxPoint x="31.83673469387756" y="14.825761255848438" as="sourcePoint"/>
                        <mxPoint x="31.83673469387756" as="targetPoint"/>
                    </mxGeometry>
                </mxCell>
                <mxCell id="9YF9n_oOePTZYvX8SAIh-87" value="" style="endArrow=none;html=1;rounded=0;" parent="9YF9n_oOePTZYvX8SAIh-81" edge="1">
                    <mxGeometry width="50" height="50" relative="1" as="geometry">
                        <mxPoint x="15.91836734693878" y="14.825761255848438" as="sourcePoint"/>
                        <mxPoint x="15.91836734693878" as="targetPoint"/>
                    </mxGeometry>
                </mxCell>
                <mxCell id="9YF9n_oOePTZYvX8SAIh-88" value="" style="group" parent="9YF9n_oOePTZYvX8SAIh-80" vertex="1" connectable="0">
                    <mxGeometry y="46.33050392452637" width="63.67346938775512" height="14.825761255848438" as="geometry"/>
                </mxCell>
                <mxCell id="9YF9n_oOePTZYvX8SAIh-89" value="" style="endArrow=none;html=1;rounded=0;" parent="9YF9n_oOePTZYvX8SAIh-88" edge="1">
                    <mxGeometry width="50" height="50" relative="1" as="geometry">
                        <mxPoint as="sourcePoint"/>
                        <mxPoint x="63.67346938775512" as="targetPoint"/>
                    </mxGeometry>
                </mxCell>
                <mxCell id="9YF9n_oOePTZYvX8SAIh-90" value="" style="endArrow=none;html=1;rounded=0;" parent="9YF9n_oOePTZYvX8SAIh-88" edge="1">
                    <mxGeometry width="50" height="50" relative="1" as="geometry">
                        <mxPoint x="63.67346938775512" y="14.825761255848438" as="sourcePoint"/>
                        <mxPoint x="63.67346938775512" as="targetPoint"/>
                    </mxGeometry>
                </mxCell>
                <mxCell id="9YF9n_oOePTZYvX8SAIh-91" value="" style="endArrow=none;html=1;rounded=0;" parent="9YF9n_oOePTZYvX8SAIh-88" edge="1">
                    <mxGeometry width="50" height="50" relative="1" as="geometry">
                        <mxPoint y="14.825761255848438" as="sourcePoint"/>
                        <mxPoint x="63.67346938775512" y="14.825761255848438" as="targetPoint"/>
                    </mxGeometry>
                </mxCell>
                <mxCell id="9YF9n_oOePTZYvX8SAIh-92" value="" style="endArrow=none;html=1;rounded=0;" parent="9YF9n_oOePTZYvX8SAIh-88" edge="1">
                    <mxGeometry width="50" height="50" relative="1" as="geometry">
                        <mxPoint x="47.75510204081634" y="14.825761255848438" as="sourcePoint"/>
                        <mxPoint x="47.75510204081634" as="targetPoint"/>
                    </mxGeometry>
                </mxCell>
                <mxCell id="9YF9n_oOePTZYvX8SAIh-93" value="" style="endArrow=none;html=1;rounded=0;" parent="9YF9n_oOePTZYvX8SAIh-88" edge="1">
                    <mxGeometry width="50" height="50" relative="1" as="geometry">
                        <mxPoint x="31.83673469387756" y="14.825761255848438" as="sourcePoint"/>
                        <mxPoint x="31.83673469387756" as="targetPoint"/>
                    </mxGeometry>
                </mxCell>
                <mxCell id="9YF9n_oOePTZYvX8SAIh-94" value="" style="endArrow=none;html=1;rounded=0;" parent="9YF9n_oOePTZYvX8SAIh-88" edge="1">
                    <mxGeometry width="50" height="50" relative="1" as="geometry">
                        <mxPoint x="15.91836734693878" y="14.825761255848438" as="sourcePoint"/>
                        <mxPoint x="15.91836734693878" as="targetPoint"/>
                    </mxGeometry>
                </mxCell>
                <mxCell id="9YF9n_oOePTZYvX8SAIh-95" value="" style="group" parent="9YF9n_oOePTZYvX8SAIh-80" vertex="1" connectable="0">
                    <mxGeometry x="63.67346938775512" width="17.908163265306126" height="75.98202643622324" as="geometry"/>
                </mxCell>
                <mxCell id="9YF9n_oOePTZYvX8SAIh-96" value="" style="ellipse;whiteSpace=wrap;html=1;aspect=fixed;strokeWidth=0;" parent="9YF9n_oOePTZYvX8SAIh-95" vertex="1">
                    <mxGeometry width="16.678981412829494" height="16.678981412829494" as="geometry"/>
                </mxCell>
                <mxCell id="9YF9n_oOePTZYvX8SAIh-97" value="" style="ellipse;whiteSpace=wrap;html=1;aspect=fixed;strokeWidth=0;" parent="9YF9n_oOePTZYvX8SAIh-95" vertex="1">
                    <mxGeometry y="16.678981412829494" width="16.678981412829494" height="16.678981412829494" as="geometry"/>
                </mxCell>
                <mxCell id="9YF9n_oOePTZYvX8SAIh-98" value="" style="ellipse;whiteSpace=wrap;html=1;aspect=fixed;strokeWidth=0;direction=south;" parent="9YF9n_oOePTZYvX8SAIh-95" vertex="1">
                    <mxGeometry y="59.30304502339375" width="16.678981412829494" height="16.678981412829494" as="geometry"/>
                </mxCell>
                <mxCell id="9YF9n_oOePTZYvX8SAIh-99" value="" style="endArrow=none;dashed=1;html=1;dashPattern=1 3;strokeWidth=2;rounded=0;exitX=0;exitY=0.5;exitDx=0;exitDy=0;" parent="9YF9n_oOePTZYvX8SAIh-95" source="9YF9n_oOePTZYvX8SAIh-98" edge="1">
                    <mxGeometry width="50" height="50" relative="1" as="geometry">
                        <mxPoint x="8.691428571428586" y="48.18372408150743" as="sourcePoint"/>
                        <mxPoint x="8.691428571428586" y="33.35796282565899" as="targetPoint"/>
                    </mxGeometry>
                </mxCell>
                <mxCell id="9YF9n_oOePTZYvX8SAIh-144" value="" style="group" parent="9YF9n_oOePTZYvX8SAIh-213" vertex="1" connectable="0">
                    <mxGeometry y="22.416551018842846" width="65.265306122449" height="31.14892439853758" as="geometry"/>
                </mxCell>
                <mxCell id="9YF9n_oOePTZYvX8SAIh-145" value="" style="endArrow=openThin;html=1;rounded=0;endFill=0;" parent="9YF9n_oOePTZYvX8SAIh-144" edge="1">
                    <mxGeometry width="50" height="50" relative="1" as="geometry">
                        <mxPoint x="33.42857142857144" y="0.014825761255856022" as="sourcePoint"/>
                        <mxPoint x="65.265306122449" as="targetPoint"/>
                    </mxGeometry>
                </mxCell>
                <mxCell id="9YF9n_oOePTZYvX8SAIh-146" value="" style="endArrow=openThin;html=1;rounded=0;endFill=0;" parent="9YF9n_oOePTZYvX8SAIh-144" edge="1">
                    <mxGeometry width="50" height="50" relative="1" as="geometry">
                        <mxPoint x="33.42857142857144" y="31.14892439853758" as="sourcePoint"/>
                        <mxPoint x="65.265306122449" y="31.134098637281728" as="targetPoint"/>
                    </mxGeometry>
                </mxCell>
                <mxCell id="9YF9n_oOePTZYvX8SAIh-147" value="" style="endArrow=none;html=1;rounded=0;" parent="9YF9n_oOePTZYvX8SAIh-144" edge="1">
                    <mxGeometry width="50" height="50" relative="1" as="geometry">
                        <mxPoint x="33.42857142857144" y="30.585545470815326" as="sourcePoint"/>
                        <mxPoint x="33.42857142857144" y="0.9340229591184501" as="targetPoint"/>
                    </mxGeometry>
                </mxCell>
                <mxCell id="9YF9n_oOePTZYvX8SAIh-148" value="" style="endArrow=none;html=1;rounded=0;" parent="9YF9n_oOePTZYvX8SAIh-144" edge="1">
                    <mxGeometry width="50" height="50" relative="1" as="geometry">
                        <mxPoint y="15.611526602408413" as="sourcePoint"/>
                        <mxPoint x="31.83673469387756" y="15.611526602408413" as="targetPoint"/>
                    </mxGeometry>
                </mxCell>
                <mxCell id="9YF9n_oOePTZYvX8SAIh-214" value="" style="endArrow=none;html=1;rounded=0;" parent="1" edge="1">
                    <mxGeometry width="50" height="50" relative="1" as="geometry">
                        <mxPoint x="752.2448979591837" y="415.41188351698923" as="sourcePoint"/>
                        <mxPoint x="752.2448979591837" y="311.6315547260502" as="targetPoint"/>
                    </mxGeometry>
                </mxCell>
                <mxCell id="9YF9n_oOePTZYvX8SAIh-215" value="" style="endArrow=openThin;html=1;rounded=0;endFill=0;" parent="1" edge="1">
                    <mxGeometry width="50" height="50" relative="1" as="geometry">
                        <mxPoint x="708.0714285714286" y="317.5915107509012" as="sourcePoint"/>
                        <mxPoint x="752.2448979591837" y="317.56185922838955" as="targetPoint"/>
                    </mxGeometry>
                </mxCell>
                <mxCell id="9YF9n_oOePTZYvX8SAIh-216" value="" style="endArrow=openThin;html=1;rounded=0;endFill=0;" parent="1" edge="1">
                    <mxGeometry width="50" height="50" relative="1" as="geometry">
                        <mxPoint x="708.0714285714286" y="408.3992984429729" as="sourcePoint"/>
                        <mxPoint x="752.2448979591837" y="407.99900288906497" as="targetPoint"/>
                    </mxGeometry>
                </mxCell>
                <mxCell id="9YF9n_oOePTZYvX8SAIh-219" value="" style="endArrow=none;html=1;rounded=0;" parent="1" edge="1">
                    <mxGeometry width="50" height="50" relative="1" as="geometry">
                        <mxPoint x="800.0000000000001" y="578.495257331322" as="sourcePoint"/>
                        <mxPoint x="800.0000000000001" y="59.59361337662669" as="targetPoint"/>
                    </mxGeometry>
                </mxCell>
                <mxCell id="9YF9n_oOePTZYvX8SAIh-220" value="" style="endArrow=none;html=1;rounded=0;" parent="1" edge="1">
                    <mxGeometry width="50" height="50" relative="1" as="geometry">
                        <mxPoint x="402.04081632653066" y="59.59361337662669" as="sourcePoint"/>
                        <mxPoint x="800.0000000000001" y="59.59361337662669" as="targetPoint"/>
                    </mxGeometry>
                </mxCell>
                <mxCell id="9YF9n_oOePTZYvX8SAIh-221" value="" style="group" parent="1" vertex="1" connectable="0">
                    <mxGeometry x="561.2244897959184" y="548.8437348196252" width="81.58163265306123" height="16.678981412829504" as="geometry"/>
                </mxCell>
                <mxCell id="9YF9n_oOePTZYvX8SAIh-222" value="" style="group" parent="9YF9n_oOePTZYvX8SAIh-221" vertex="1" connectable="0">
                    <mxGeometry y="1.8532201569810653" width="63.67346938775511" height="14.825761255848438" as="geometry"/>
                </mxCell>
                <mxCell id="9YF9n_oOePTZYvX8SAIh-223" value="" style="endArrow=none;html=1;rounded=0;" parent="9YF9n_oOePTZYvX8SAIh-222" edge="1">
                    <mxGeometry width="50" height="50" relative="1" as="geometry">
                        <mxPoint as="sourcePoint"/>
                        <mxPoint x="63.67346938775511" as="targetPoint"/>
                    </mxGeometry>
                </mxCell>
                <mxCell id="9YF9n_oOePTZYvX8SAIh-224" value="" style="endArrow=none;html=1;rounded=0;" parent="9YF9n_oOePTZYvX8SAIh-222" edge="1">
                    <mxGeometry width="50" height="50" relative="1" as="geometry">
                        <mxPoint x="63.67346938775511" y="14.825761255848438" as="sourcePoint"/>
                        <mxPoint x="63.67346938775511" as="targetPoint"/>
                    </mxGeometry>
                </mxCell>
                <mxCell id="9YF9n_oOePTZYvX8SAIh-225" value="" style="endArrow=none;html=1;rounded=0;" parent="9YF9n_oOePTZYvX8SAIh-222" edge="1">
                    <mxGeometry width="50" height="50" relative="1" as="geometry">
                        <mxPoint y="14.825761255848438" as="sourcePoint"/>
                        <mxPoint x="63.67346938775511" y="14.825761255848438" as="targetPoint"/>
                    </mxGeometry>
                </mxCell>
                <mxCell id="9YF9n_oOePTZYvX8SAIh-226" value="" style="endArrow=none;html=1;rounded=0;" parent="9YF9n_oOePTZYvX8SAIh-222" edge="1">
                    <mxGeometry width="50" height="50" relative="1" as="geometry">
                        <mxPoint x="47.75510204081633" y="14.825761255848438" as="sourcePoint"/>
                        <mxPoint x="47.75510204081633" as="targetPoint"/>
                    </mxGeometry>
                </mxCell>
                <mxCell id="9YF9n_oOePTZYvX8SAIh-227" value="" style="endArrow=none;html=1;rounded=0;" parent="9YF9n_oOePTZYvX8SAIh-222" edge="1">
                    <mxGeometry width="50" height="50" relative="1" as="geometry">
                        <mxPoint x="31.836734693877556" y="14.825761255848438" as="sourcePoint"/>
                        <mxPoint x="31.836734693877556" as="targetPoint"/>
                    </mxGeometry>
                </mxCell>
                <mxCell id="9YF9n_oOePTZYvX8SAIh-228" value="" style="endArrow=none;html=1;rounded=0;" parent="9YF9n_oOePTZYvX8SAIh-222" edge="1">
                    <mxGeometry width="50" height="50" relative="1" as="geometry">
                        <mxPoint x="15.918367346938778" y="14.825761255848438" as="sourcePoint"/>
                        <mxPoint x="15.918367346938778" as="targetPoint"/>
                    </mxGeometry>
                </mxCell>
                <mxCell id="9YF9n_oOePTZYvX8SAIh-229" value="" style="ellipse;whiteSpace=wrap;html=1;aspect=fixed;strokeWidth=0;" parent="9YF9n_oOePTZYvX8SAIh-221" vertex="1">
                    <mxGeometry x="63.67346938775511" width="16.678981412829494" height="16.678981412829494" as="geometry"/>
                </mxCell>
                <mxCell id="9YF9n_oOePTZYvX8SAIh-238" value="Area&amp;nbsp;&lt;span style=&quot;background-color: initial;&quot;&gt;Attrazioni&lt;/span&gt;" style="text;html=1;align=center;verticalAlign=middle;whiteSpace=wrap;rounded=0;fontSize=12;" parent="1" vertex="1">
                    <mxGeometry x="612.5612244897959" y="446.73871705059696" width="95.51020408163266" height="44.477283767545316" as="geometry"/>
                </mxCell>
                <mxCell id="9YF9n_oOePTZYvX8SAIh-239" value="" style="endArrow=none;dashed=1;html=1;dashPattern=1 3;strokeWidth=2;rounded=0;" parent="1" edge="1">
                    <mxGeometry width="50" height="50" relative="1" as="geometry">
                        <mxPoint x="636.4387755102042" y="362.0687945184465" as="sourcePoint"/>
                        <mxPoint x="684.1938775510205" y="362.0687945184465" as="targetPoint"/>
                    </mxGeometry>
                </mxCell>
                <mxCell id="9YF9n_oOePTZYvX8SAIh-240" value="Area Ristoro" style="text;html=1;align=center;verticalAlign=middle;whiteSpace=wrap;rounded=0;fontSize=12;" parent="1" vertex="1">
                    <mxGeometry x="547.295918367347" y="165.2271623245468" width="95.51020408163266" height="44.477283767545316" as="geometry"/>
                </mxCell>
                <mxCell id="9YF9n_oOePTZYvX8SAIh-241" value="" style="endArrow=openThin;html=1;rounded=0;endFill=0;" parent="1" edge="1">
                    <mxGeometry width="50" height="50" relative="1" as="geometry">
                        <mxPoint x="497.5510204081633" y="111.48377777209622" as="sourcePoint"/>
                        <mxPoint x="561.2244897959184" y="112.0619824610743" as="targetPoint"/>
                    </mxGeometry>
                </mxCell>
                <mxCell id="9YF9n_oOePTZYvX8SAIh-259" value="" style="endArrow=openThin;html=1;rounded=0;endFill=0;" parent="1" edge="1">
                    <mxGeometry width="50" height="50" relative="1" as="geometry">
                        <mxPoint x="497.5510204081633" y="157.4436376652264" as="sourcePoint"/>
                        <mxPoint x="564.4081632653063" y="157.4584634264822" as="targetPoint"/>
                    </mxGeometry>
                </mxCell>
                <mxCell id="9YF9n_oOePTZYvX8SAIh-261" value="" style="endArrow=none;html=1;rounded=0;" parent="1" edge="1">
                    <mxGeometry width="50" height="50" relative="1" as="geometry">
                        <mxPoint x="687.8073469387755" y="163.37394216756576" as="sourcePoint"/>
                        <mxPoint x="687.8073469387755" y="104.07089714417201" as="targetPoint"/>
                    </mxGeometry>
                </mxCell>
                <mxCell id="9YF9n_oOePTZYvX8SAIh-262" value="" style="endArrow=openThin;html=1;rounded=0;endFill=0;" parent="1" edge="1">
                    <mxGeometry width="50" height="50" relative="1" as="geometry">
                        <mxPoint x="642.8061224489797" y="112.0619824610743" as="sourcePoint"/>
                        <mxPoint x="688.5714285714286" y="111.48377777209622" as="targetPoint"/>
                    </mxGeometry>
                </mxCell>
                <mxCell id="9YF9n_oOePTZYvX8SAIh-263" value="" style="endArrow=openThin;html=1;rounded=0;endFill=0;" parent="1" edge="1">
                    <mxGeometry width="50" height="50" relative="1" as="geometry">
                        <mxPoint x="642.8061224489797" y="157.11747091759773" as="sourcePoint"/>
                        <mxPoint x="688.5714285714286" y="156.53926622861965" as="targetPoint"/>
                    </mxGeometry>
                </mxCell>
                <mxCell id="9YF9n_oOePTZYvX8SAIh-265" value="" style="group" parent="1" vertex="1" connectable="0">
                    <mxGeometry x="561.2244897959184" y="593.3210185871704" width="81.58163265306123" height="16.678981412829504" as="geometry"/>
                </mxCell>
                <mxCell id="9YF9n_oOePTZYvX8SAIh-266" value="" style="group" parent="9YF9n_oOePTZYvX8SAIh-265" vertex="1" connectable="0">
                    <mxGeometry y="1.8532201569810653" width="63.67346938775511" height="14.825761255848438" as="geometry"/>
                </mxCell>
                <mxCell id="9YF9n_oOePTZYvX8SAIh-267" value="" style="endArrow=none;html=1;rounded=0;" parent="9YF9n_oOePTZYvX8SAIh-266" edge="1">
                    <mxGeometry width="50" height="50" relative="1" as="geometry">
                        <mxPoint as="sourcePoint"/>
                        <mxPoint x="63.67346938775511" as="targetPoint"/>
                    </mxGeometry>
                </mxCell>
                <mxCell id="9YF9n_oOePTZYvX8SAIh-268" value="" style="endArrow=none;html=1;rounded=0;" parent="9YF9n_oOePTZYvX8SAIh-266" edge="1">
                    <mxGeometry width="50" height="50" relative="1" as="geometry">
                        <mxPoint x="63.67346938775511" y="14.825761255848438" as="sourcePoint"/>
                        <mxPoint x="63.67346938775511" as="targetPoint"/>
                    </mxGeometry>
                </mxCell>
                <mxCell id="9YF9n_oOePTZYvX8SAIh-269" value="" style="endArrow=none;html=1;rounded=0;" parent="9YF9n_oOePTZYvX8SAIh-266" edge="1">
                    <mxGeometry width="50" height="50" relative="1" as="geometry">
                        <mxPoint y="14.825761255848438" as="sourcePoint"/>
                        <mxPoint x="63.67346938775511" y="14.825761255848438" as="targetPoint"/>
                    </mxGeometry>
                </mxCell>
                <mxCell id="9YF9n_oOePTZYvX8SAIh-270" value="" style="endArrow=none;html=1;rounded=0;" parent="9YF9n_oOePTZYvX8SAIh-266" edge="1">
                    <mxGeometry width="50" height="50" relative="1" as="geometry">
                        <mxPoint x="47.75510204081633" y="14.825761255848438" as="sourcePoint"/>
                        <mxPoint x="47.75510204081633" as="targetPoint"/>
                    </mxGeometry>
                </mxCell>
                <mxCell id="9YF9n_oOePTZYvX8SAIh-271" value="" style="endArrow=none;html=1;rounded=0;" parent="9YF9n_oOePTZYvX8SAIh-266" edge="1">
                    <mxGeometry width="50" height="50" relative="1" as="geometry">
                        <mxPoint x="31.836734693877556" y="14.825761255848438" as="sourcePoint"/>
                        <mxPoint x="31.836734693877556" as="targetPoint"/>
                    </mxGeometry>
                </mxCell>
                <mxCell id="9YF9n_oOePTZYvX8SAIh-272" value="" style="endArrow=none;html=1;rounded=0;" parent="9YF9n_oOePTZYvX8SAIh-266" edge="1">
                    <mxGeometry width="50" height="50" relative="1" as="geometry">
                        <mxPoint x="15.918367346938778" y="14.825761255848438" as="sourcePoint"/>
                        <mxPoint x="15.918367346938778" as="targetPoint"/>
                    </mxGeometry>
                </mxCell>
                <mxCell id="9YF9n_oOePTZYvX8SAIh-273" value="" style="ellipse;whiteSpace=wrap;html=1;aspect=fixed;strokeWidth=0;" parent="9YF9n_oOePTZYvX8SAIh-265" vertex="1">
                    <mxGeometry x="63.67346938775511" width="16.678981412829494" height="16.678981412829494" as="geometry"/>
                </mxCell>
                <mxCell id="9YF9n_oOePTZYvX8SAIh-274" value="" style="endArrow=openThin;html=1;rounded=0;endFill=0;" parent="1" edge="1">
                    <mxGeometry width="50" height="50" relative="1" as="geometry">
                        <mxPoint x="497.5510204081633" y="557.7391915731342" as="sourcePoint"/>
                        <mxPoint x="558.0408163265306" y="557.7391915731342" as="targetPoint"/>
                    </mxGeometry>
                </mxCell>
                <mxCell id="9YF9n_oOePTZYvX8SAIh-275" value="" style="endArrow=openThin;html=1;rounded=0;endFill=0;" parent="1" edge="1">
                    <mxGeometry width="50" height="50" relative="1" as="geometry">
                        <mxPoint x="497.5510204081633" y="603.6990514662645" as="sourcePoint"/>
                        <mxPoint x="561.2244897959184" y="603.1356725385422" as="targetPoint"/>
                    </mxGeometry>
                </mxCell>
                <mxCell id="9YF9n_oOePTZYvX8SAIh-276" value="" style="endArrow=none;dashed=1;html=1;dashPattern=1 3;strokeWidth=2;rounded=0;" parent="1" edge="1">
                    <mxGeometry width="50" height="50" relative="1" as="geometry">
                        <mxPoint x="561.2244897959184" y="578.495257331322" as="sourcePoint"/>
                        <mxPoint x="624.8979591836735" y="578.495257331322" as="targetPoint"/>
                    </mxGeometry>
                </mxCell>
                <mxCell id="9YF9n_oOePTZYvX8SAIh-278" value="" style="endArrow=none;html=1;rounded=0;" parent="1" edge="1">
                    <mxGeometry width="50" height="50" relative="1" as="geometry">
                        <mxPoint x="688.5714285714286" y="608.146779843019" as="sourcePoint"/>
                        <mxPoint x="688.5714285714286" y="548.8437348196252" as="targetPoint"/>
                    </mxGeometry>
                </mxCell>
                <mxCell id="9YF9n_oOePTZYvX8SAIh-279" value="" style="endArrow=openThin;html=1;rounded=0;endFill=0;exitX=1;exitY=0.5;exitDx=0;exitDy=0;" parent="1" source="9YF9n_oOePTZYvX8SAIh-229" edge="1">
                    <mxGeometry width="50" height="50" relative="1" as="geometry">
                        <mxPoint x="640.8163265306123" y="556.8348201365275" as="sourcePoint"/>
                        <mxPoint x="686.5816326530613" y="556.2566154475494" as="targetPoint"/>
                    </mxGeometry>
                </mxCell>
                <mxCell id="9YF9n_oOePTZYvX8SAIh-280" value="" style="endArrow=openThin;html=1;rounded=0;endFill=0;exitX=1;exitY=0.5;exitDx=0;exitDy=0;" parent="1" source="9YF9n_oOePTZYvX8SAIh-273" edge="1">
                    <mxGeometry width="50" height="50" relative="1" as="geometry">
                        <mxPoint x="640.8163265306123" y="601.8903085930508" as="sourcePoint"/>
                        <mxPoint x="686.5816326530613" y="601.3121039040727" as="targetPoint"/>
                    </mxGeometry>
                </mxCell>
                <mxCell id="9YF9n_oOePTZYvX8SAIh-283" value="" style="endArrow=openThin;html=1;rounded=0;endFill=0;" parent="1" edge="1">
                    <mxGeometry width="50" height="50" relative="1" as="geometry">
                        <mxPoint x="688.5714285714286" y="133.7224196558689" as="sourcePoint"/>
                        <mxPoint x="800.0000000000001" y="133.7224196558689" as="targetPoint"/>
                    </mxGeometry>
                </mxCell>
                <mxCell id="9YF9n_oOePTZYvX8SAIh-284" value="" style="endArrow=openThin;html=1;rounded=0;endFill=0;" parent="1" edge="1">
                    <mxGeometry width="50" height="50" relative="1" as="geometry">
                        <mxPoint x="752.2448979591837" y="363.002817477565" as="sourcePoint"/>
                        <mxPoint x="800.0000000000001" y="363.52171912151965" as="targetPoint"/>
                    </mxGeometry>
                </mxCell>
                <mxCell id="9YF9n_oOePTZYvX8SAIh-285" value="" style="endArrow=openThin;html=1;rounded=0;endFill=0;" parent="1" edge="1">
                    <mxGeometry width="50" height="50" relative="1" as="geometry">
                        <mxPoint x="688.5714285714286" y="578.495257331322" as="sourcePoint"/>
                        <mxPoint x="800.0000000000001" y="578.495257331322" as="targetPoint"/>
                    </mxGeometry>
                </mxCell>
                <mxCell id="9YF9n_oOePTZYvX8SAIh-287" value="" style="group" parent="1" vertex="1" connectable="0">
                    <mxGeometry x="220" y="150.58554547081533" width="63.67346938775511" height="14.825761255848438" as="geometry"/>
                </mxCell>
                <mxCell id="9YF9n_oOePTZYvX8SAIh-288" value="" style="endArrow=none;html=1;rounded=0;" parent="9YF9n_oOePTZYvX8SAIh-287" edge="1">
                    <mxGeometry width="50" height="50" relative="1" as="geometry">
                        <mxPoint as="sourcePoint"/>
                        <mxPoint x="63.67346938775511" as="targetPoint"/>
                    </mxGeometry>
                </mxCell>
                <mxCell id="9YF9n_oOePTZYvX8SAIh-289" value="" style="endArrow=none;html=1;rounded=0;" parent="9YF9n_oOePTZYvX8SAIh-287" edge="1">
                    <mxGeometry width="50" height="50" relative="1" as="geometry">
                        <mxPoint x="63.67346938775511" y="14.825761255848438" as="sourcePoint"/>
                        <mxPoint x="63.67346938775511" as="targetPoint"/>
                    </mxGeometry>
                </mxCell>
                <mxCell id="9YF9n_oOePTZYvX8SAIh-290" value="" style="endArrow=none;html=1;rounded=0;" parent="9YF9n_oOePTZYvX8SAIh-287" edge="1">
                    <mxGeometry width="50" height="50" relative="1" as="geometry">
                        <mxPoint y="14.825761255848438" as="sourcePoint"/>
                        <mxPoint x="63.67346938775511" y="14.825761255848438" as="targetPoint"/>
                    </mxGeometry>
                </mxCell>
                <mxCell id="9YF9n_oOePTZYvX8SAIh-291" value="" style="endArrow=none;html=1;rounded=0;" parent="9YF9n_oOePTZYvX8SAIh-287" edge="1">
                    <mxGeometry width="50" height="50" relative="1" as="geometry">
                        <mxPoint x="47.75510204081633" y="14.825761255848438" as="sourcePoint"/>
                        <mxPoint x="47.75510204081633" as="targetPoint"/>
                        <Array as="points">
                            <mxPoint x="47.75510204081633" y="14.825761255848438"/>
                        </Array>
                    </mxGeometry>
                </mxCell>
                <mxCell id="9YF9n_oOePTZYvX8SAIh-292" value="" style="endArrow=none;html=1;rounded=0;" parent="9YF9n_oOePTZYvX8SAIh-287" edge="1">
                    <mxGeometry width="50" height="50" relative="1" as="geometry">
                        <mxPoint x="31.836734693877556" y="14.825761255848438" as="sourcePoint"/>
                        <mxPoint x="31.836734693877556" as="targetPoint"/>
                    </mxGeometry>
                </mxCell>
                <mxCell id="9YF9n_oOePTZYvX8SAIh-293" value="" style="endArrow=none;html=1;rounded=0;" parent="9YF9n_oOePTZYvX8SAIh-287" edge="1">
                    <mxGeometry width="50" height="50" relative="1" as="geometry">
                        <mxPoint x="15.918367346938778" y="14.825761255848438" as="sourcePoint"/>
                        <mxPoint x="15.918367346938778" as="targetPoint"/>
                    </mxGeometry>
                </mxCell>
                <mxCell id="9YF9n_oOePTZYvX8SAIh-307" value="" style="endArrow=none;dashed=1;html=1;dashPattern=1 3;strokeWidth=2;rounded=0;" parent="1" edge="1">
                    <mxGeometry width="50" height="50" relative="1" as="geometry">
                        <mxPoint x="561.2244897959184" y="134.35992738987036" as="sourcePoint"/>
                        <mxPoint x="624.8979591836735" y="133.7224196558689" as="targetPoint"/>
                    </mxGeometry>
                </mxCell>
            </root>
        </mxGraphModel>
    </diagram>
    <diagram id="kM7_ykuT_Q3ZjjHs4hgO" name="Second_Idea">
        <mxGraphModel dx="749" dy="908" grid="1" gridSize="10" guides="1" tooltips="1" connect="1" arrows="1" fold="1" page="1" pageScale="1" pageWidth="827" pageHeight="1169" math="0" shadow="0">
            <root>
                <mxCell id="0"/>
                <mxCell id="1" parent="0"/>
                <mxCell id="5t4HWGCkfHh8ap054Ajh-2" value="" style="group" parent="1" vertex="1" connectable="0">
                    <mxGeometry x="132.10734693877552" y="382.86003221435317" width="63.67346938775511" height="14.825761255848438" as="geometry"/>
                </mxCell>
                <mxCell id="5t4HWGCkfHh8ap054Ajh-3" value="" style="endArrow=none;html=1;rounded=0;" parent="5t4HWGCkfHh8ap054Ajh-2" edge="1">
                    <mxGeometry width="50" height="50" relative="1" as="geometry">
                        <mxPoint as="sourcePoint"/>
                        <mxPoint x="63.67346938775511" as="targetPoint"/>
                    </mxGeometry>
                </mxCell>
                <mxCell id="5t4HWGCkfHh8ap054Ajh-4" value="" style="endArrow=none;html=1;rounded=0;" parent="5t4HWGCkfHh8ap054Ajh-2" edge="1">
                    <mxGeometry width="50" height="50" relative="1" as="geometry">
                        <mxPoint x="63.67346938775511" y="14.825761255848438" as="sourcePoint"/>
                        <mxPoint x="63.67346938775511" as="targetPoint"/>
                    </mxGeometry>
                </mxCell>
                <mxCell id="5t4HWGCkfHh8ap054Ajh-5" value="" style="endArrow=none;html=1;rounded=0;" parent="5t4HWGCkfHh8ap054Ajh-2" edge="1">
                    <mxGeometry width="50" height="50" relative="1" as="geometry">
                        <mxPoint y="14.825761255848438" as="sourcePoint"/>
                        <mxPoint x="63.67346938775511" y="14.825761255848438" as="targetPoint"/>
                    </mxGeometry>
                </mxCell>
                <mxCell id="5t4HWGCkfHh8ap054Ajh-6" value="" style="endArrow=none;html=1;rounded=0;" parent="5t4HWGCkfHh8ap054Ajh-2" edge="1">
                    <mxGeometry width="50" height="50" relative="1" as="geometry">
                        <mxPoint x="47.75510204081633" y="14.825761255848438" as="sourcePoint"/>
                        <mxPoint x="47.75510204081633" as="targetPoint"/>
                        <Array as="points">
                            <mxPoint x="47.75510204081633" y="14.825761255848438"/>
                        </Array>
                    </mxGeometry>
                </mxCell>
                <mxCell id="5t4HWGCkfHh8ap054Ajh-7" value="" style="endArrow=none;html=1;rounded=0;" parent="5t4HWGCkfHh8ap054Ajh-2" edge="1">
                    <mxGeometry width="50" height="50" relative="1" as="geometry">
                        <mxPoint x="31.836734693877556" y="14.825761255848438" as="sourcePoint"/>
                        <mxPoint x="31.836734693877556" as="targetPoint"/>
                    </mxGeometry>
                </mxCell>
                <mxCell id="5t4HWGCkfHh8ap054Ajh-8" value="" style="endArrow=none;html=1;rounded=0;" parent="5t4HWGCkfHh8ap054Ajh-2" edge="1">
                    <mxGeometry width="50" height="50" relative="1" as="geometry">
                        <mxPoint x="15.918367346938778" y="14.825761255848438" as="sourcePoint"/>
                        <mxPoint x="15.918367346938778" as="targetPoint"/>
                    </mxGeometry>
                </mxCell>
                <mxCell id="5t4HWGCkfHh8ap054Ajh-9" value="" style="endArrow=openThin;html=1;rounded=0;startArrow=none;startFill=0;endFill=0;" parent="1" edge="1">
                    <mxGeometry width="50" height="50" relative="1" as="geometry">
                        <mxPoint x="68.4338775510204" y="390.3507161301868" as="sourcePoint"/>
                        <mxPoint x="132.10734693877552" y="389.9948978600464" as="targetPoint"/>
                    </mxGeometry>
                </mxCell>
                <mxCell id="5t4HWGCkfHh8ap054Ajh-10" value="Biglietteria" style="text;html=1;align=center;verticalAlign=middle;whiteSpace=wrap;rounded=0;fontSize=12;" parent="1" vertex="1">
                    <mxGeometry x="118.17877551020409" y="442.34098637281727" width="95.51020408163266" height="29.651522511696875" as="geometry"/>
                </mxCell>
                <mxCell id="5t4HWGCkfHh8ap054Ajh-11" value="" style="group" parent="1" vertex="1" connectable="0">
                    <mxGeometry x="275.3726530612245" y="382.86003221435317" width="63.67346938775511" height="14.825761255848438" as="geometry"/>
                </mxCell>
                <mxCell id="5t4HWGCkfHh8ap054Ajh-12" value="" style="endArrow=none;html=1;rounded=0;" parent="5t4HWGCkfHh8ap054Ajh-11" edge="1">
                    <mxGeometry width="50" height="50" relative="1" as="geometry">
                        <mxPoint as="sourcePoint"/>
                        <mxPoint x="63.67346938775511" as="targetPoint"/>
                    </mxGeometry>
                </mxCell>
                <mxCell id="5t4HWGCkfHh8ap054Ajh-13" value="" style="endArrow=none;html=1;rounded=0;" parent="5t4HWGCkfHh8ap054Ajh-11" edge="1">
                    <mxGeometry width="50" height="50" relative="1" as="geometry">
                        <mxPoint x="63.67346938775511" y="14.825761255848438" as="sourcePoint"/>
                        <mxPoint x="63.67346938775511" as="targetPoint"/>
                    </mxGeometry>
                </mxCell>
                <mxCell id="5t4HWGCkfHh8ap054Ajh-14" value="" style="endArrow=none;html=1;rounded=0;" parent="5t4HWGCkfHh8ap054Ajh-11" edge="1">
                    <mxGeometry width="50" height="50" relative="1" as="geometry">
                        <mxPoint y="14.825761255848438" as="sourcePoint"/>
                        <mxPoint x="63.67346938775511" y="14.825761255848438" as="targetPoint"/>
                    </mxGeometry>
                </mxCell>
                <mxCell id="5t4HWGCkfHh8ap054Ajh-15" value="" style="endArrow=none;html=1;rounded=0;" parent="5t4HWGCkfHh8ap054Ajh-11" edge="1">
                    <mxGeometry width="50" height="50" relative="1" as="geometry">
                        <mxPoint x="47.75510204081633" y="14.825761255848438" as="sourcePoint"/>
                        <mxPoint x="47.75510204081633" as="targetPoint"/>
                    </mxGeometry>
                </mxCell>
                <mxCell id="5t4HWGCkfHh8ap054Ajh-16" value="" style="endArrow=none;html=1;rounded=0;" parent="5t4HWGCkfHh8ap054Ajh-11" edge="1">
                    <mxGeometry width="50" height="50" relative="1" as="geometry">
                        <mxPoint x="31.836734693877556" y="14.825761255848438" as="sourcePoint"/>
                        <mxPoint x="31.836734693877556" as="targetPoint"/>
                    </mxGeometry>
                </mxCell>
                <mxCell id="5t4HWGCkfHh8ap054Ajh-17" value="" style="endArrow=none;html=1;rounded=0;" parent="5t4HWGCkfHh8ap054Ajh-11" edge="1">
                    <mxGeometry width="50" height="50" relative="1" as="geometry">
                        <mxPoint x="15.918367346938778" y="14.825761255848438" as="sourcePoint"/>
                        <mxPoint x="15.918367346938778" as="targetPoint"/>
                    </mxGeometry>
                </mxCell>
                <mxCell id="5t4HWGCkfHh8ap054Ajh-18" value="Controllo Biglietti" style="text;html=1;align=center;verticalAlign=middle;whiteSpace=wrap;rounded=0;fontSize=12;" parent="1" vertex="1">
                    <mxGeometry x="259.45428571428573" y="442.34098637281727" width="95.51020408163266" height="29.651522511696875" as="geometry"/>
                </mxCell>
                <mxCell id="5t4HWGCkfHh8ap054Ajh-19" value="" style="group" parent="1" vertex="1" connectable="0">
                    <mxGeometry x="339.04612244897965" y="351.3552895456753" width="17.908163265306122" height="75.98202643622324" as="geometry"/>
                </mxCell>
                <mxCell id="5t4HWGCkfHh8ap054Ajh-20" value="" style="ellipse;whiteSpace=wrap;html=1;aspect=fixed;strokeWidth=0;" parent="5t4HWGCkfHh8ap054Ajh-19" vertex="1">
                    <mxGeometry width="16.678981412829494" height="16.678981412829494" as="geometry"/>
                </mxCell>
                <mxCell id="5t4HWGCkfHh8ap054Ajh-21" value="" style="ellipse;whiteSpace=wrap;html=1;aspect=fixed;strokeWidth=0;" parent="5t4HWGCkfHh8ap054Ajh-19" vertex="1">
                    <mxGeometry y="16.678981412829494" width="16.678981412829494" height="16.678981412829494" as="geometry"/>
                </mxCell>
                <mxCell id="5t4HWGCkfHh8ap054Ajh-22" value="" style="ellipse;whiteSpace=wrap;html=1;aspect=fixed;strokeWidth=0;direction=south;" parent="5t4HWGCkfHh8ap054Ajh-19" vertex="1">
                    <mxGeometry y="59.30304502339375" width="16.678981412829494" height="16.678981412829494" as="geometry"/>
                </mxCell>
                <mxCell id="5t4HWGCkfHh8ap054Ajh-23" value="" style="endArrow=none;dashed=1;html=1;dashPattern=1 3;strokeWidth=2;rounded=0;exitX=0;exitY=0.5;exitDx=0;exitDy=0;" parent="5t4HWGCkfHh8ap054Ajh-19" source="5t4HWGCkfHh8ap054Ajh-22" edge="1">
                    <mxGeometry width="50" height="50" relative="1" as="geometry">
                        <mxPoint x="8.691428571428583" y="48.18372408150743" as="sourcePoint"/>
                        <mxPoint x="8.691428571428583" y="33.35796282565899" as="targetPoint"/>
                    </mxGeometry>
                </mxCell>
                <mxCell id="5t4HWGCkfHh8ap054Ajh-24" value="" style="group" parent="1" vertex="1" connectable="0">
                    <mxGeometry x="195.7808163265306" y="352.28931250479377" width="17.908163265306122" height="75.98202643622324" as="geometry"/>
                </mxCell>
                <mxCell id="5t4HWGCkfHh8ap054Ajh-25" value="" style="ellipse;whiteSpace=wrap;html=1;aspect=fixed;strokeWidth=0;" parent="5t4HWGCkfHh8ap054Ajh-24" vertex="1">
                    <mxGeometry width="16.678981412829494" height="16.678981412829494" as="geometry"/>
                </mxCell>
                <mxCell id="5t4HWGCkfHh8ap054Ajh-26" value="" style="ellipse;whiteSpace=wrap;html=1;aspect=fixed;strokeWidth=0;" parent="5t4HWGCkfHh8ap054Ajh-24" vertex="1">
                    <mxGeometry y="16.678981412829494" width="16.678981412829494" height="16.678981412829494" as="geometry"/>
                </mxCell>
                <mxCell id="5t4HWGCkfHh8ap054Ajh-27" value="" style="ellipse;whiteSpace=wrap;html=1;aspect=fixed;strokeWidth=0;direction=south;" parent="5t4HWGCkfHh8ap054Ajh-24" vertex="1">
                    <mxGeometry y="59.30304502339375" width="16.678981412829494" height="16.678981412829494" as="geometry"/>
                </mxCell>
                <mxCell id="5t4HWGCkfHh8ap054Ajh-28" value="" style="endArrow=none;dashed=1;html=1;dashPattern=1 3;strokeWidth=2;rounded=0;exitX=0;exitY=0.5;exitDx=0;exitDy=0;" parent="5t4HWGCkfHh8ap054Ajh-24" source="5t4HWGCkfHh8ap054Ajh-27" edge="1">
                    <mxGeometry width="50" height="50" relative="1" as="geometry">
                        <mxPoint x="8.691428571428583" y="48.18372408150743" as="sourcePoint"/>
                        <mxPoint x="8.691428571428583" y="33.35796282565899" as="targetPoint"/>
                    </mxGeometry>
                </mxCell>
                <mxCell id="5t4HWGCkfHh8ap054Ajh-29" value="" style="endArrow=openThin;html=1;rounded=0;endFill=0;" parent="1" edge="1">
                    <mxGeometry width="50" height="50" relative="1" as="geometry">
                        <mxPoint x="213.68897959183676" y="390.2729128422775" as="sourcePoint"/>
                        <mxPoint x="275.3726530612245" y="390.5101250223711" as="targetPoint"/>
                    </mxGeometry>
                </mxCell>
                <mxCell id="5t4HWGCkfHh8ap054Ajh-30" value="" style="group" parent="1" vertex="1" connectable="0">
                    <mxGeometry x="100" y="338.3827484468079" width="143.53591836734697" height="44.477283767545316" as="geometry"/>
                </mxCell>
                <mxCell id="5t4HWGCkfHh8ap054Ajh-31" value="" style="endArrow=none;html=1;rounded=0;" parent="5t4HWGCkfHh8ap054Ajh-30" edge="1">
                    <mxGeometry width="50" height="50" relative="1" as="geometry">
                        <mxPoint y="51.89016439546953" as="sourcePoint"/>
                        <mxPoint y="7.412880627924219" as="targetPoint"/>
                    </mxGeometry>
                </mxCell>
                <mxCell id="5t4HWGCkfHh8ap054Ajh-32" value="" style="endArrow=none;html=1;rounded=0;" parent="5t4HWGCkfHh8ap054Ajh-30" edge="1">
                    <mxGeometry width="50" height="50" relative="1" as="geometry">
                        <mxPoint x="0.27061224489796193" y="7.412880627924219" as="sourcePoint"/>
                        <mxPoint x="143.53591836734697" y="7.412880627924219" as="targetPoint"/>
                    </mxGeometry>
                </mxCell>
                <mxCell id="5t4HWGCkfHh8ap054Ajh-33" value="p_on" style="edgeLabel;html=1;align=center;verticalAlign=middle;resizable=0;points=[];" parent="5t4HWGCkfHh8ap054Ajh-32" vertex="1" connectable="0">
                    <mxGeometry x="-0.8074" y="-1" relative="1" as="geometry">
                        <mxPoint x="2" y="-10" as="offset"/>
                    </mxGeometry>
                </mxCell>
                <mxCell id="5t4HWGCkfHh8ap054Ajh-34" value="" style="endArrow=none;html=1;rounded=0;startArrow=openThin;startFill=0;" parent="5t4HWGCkfHh8ap054Ajh-30" edge="1">
                    <mxGeometry width="50" height="50" relative="1" as="geometry">
                        <mxPoint x="143.53591836734697" y="51.89016439546953" as="sourcePoint"/>
                        <mxPoint x="143.53591836734697" y="7.412880627924219" as="targetPoint"/>
                    </mxGeometry>
                </mxCell>
                <mxCell id="5t4HWGCkfHh8ap054Ajh-35" value="" style="group" parent="1" vertex="1" connectable="0">
                    <mxGeometry x="316.7938775510204" y="146.92910285582798" width="17.908163265306122" height="75.98202643622324" as="geometry"/>
                </mxCell>
                <mxCell id="5t4HWGCkfHh8ap054Ajh-36" value="" style="ellipse;whiteSpace=wrap;html=1;aspect=fixed;strokeWidth=0;" parent="5t4HWGCkfHh8ap054Ajh-35" vertex="1">
                    <mxGeometry width="16.678981412829494" height="16.678981412829494" as="geometry"/>
                </mxCell>
                <mxCell id="5t4HWGCkfHh8ap054Ajh-37" value="" style="ellipse;whiteSpace=wrap;html=1;aspect=fixed;strokeWidth=0;" parent="5t4HWGCkfHh8ap054Ajh-35" vertex="1">
                    <mxGeometry y="16.678981412829494" width="16.678981412829494" height="16.678981412829494" as="geometry"/>
                </mxCell>
                <mxCell id="5t4HWGCkfHh8ap054Ajh-38" value="" style="ellipse;whiteSpace=wrap;html=1;aspect=fixed;strokeWidth=0;direction=south;" parent="5t4HWGCkfHh8ap054Ajh-35" vertex="1">
                    <mxGeometry y="59.30304502339375" width="16.678981412829494" height="16.678981412829494" as="geometry"/>
                </mxCell>
                <mxCell id="5t4HWGCkfHh8ap054Ajh-39" value="" style="endArrow=none;dashed=1;html=1;dashPattern=1 3;strokeWidth=2;rounded=0;exitX=0;exitY=0.5;exitDx=0;exitDy=0;" parent="5t4HWGCkfHh8ap054Ajh-35" source="5t4HWGCkfHh8ap054Ajh-38" edge="1">
                    <mxGeometry width="50" height="50" relative="1" as="geometry">
                        <mxPoint x="8.691428571428583" y="48.18372408150743" as="sourcePoint"/>
                        <mxPoint x="8.691428571428583" y="33.35796282565899" as="targetPoint"/>
                    </mxGeometry>
                </mxCell>
                <mxCell id="5t4HWGCkfHh8ap054Ajh-40" value="" style="group" parent="1" vertex="1" connectable="0">
                    <mxGeometry x="230.22979591836736" y="235.8836703909186" width="65.26530612244899" height="31.14892439853758" as="geometry"/>
                </mxCell>
                <mxCell id="5t4HWGCkfHh8ap054Ajh-41" value="" style="endArrow=openThin;html=1;rounded=0;endFill=0;" parent="5t4HWGCkfHh8ap054Ajh-40" edge="1">
                    <mxGeometry width="50" height="50" relative="1" as="geometry">
                        <mxPoint x="33.42857142857143" y="0.014825761255856022" as="sourcePoint"/>
                        <mxPoint x="65.26530612244899" as="targetPoint"/>
                    </mxGeometry>
                </mxCell>
                <mxCell id="5t4HWGCkfHh8ap054Ajh-42" value="" style="endArrow=openThin;html=1;rounded=0;endFill=0;" parent="5t4HWGCkfHh8ap054Ajh-40" edge="1">
                    <mxGeometry width="50" height="50" relative="1" as="geometry">
                        <mxPoint x="33.42857142857143" y="31.14892439853758" as="sourcePoint"/>
                        <mxPoint x="65.26530612244899" y="31.134098637281728" as="targetPoint"/>
                    </mxGeometry>
                </mxCell>
                <mxCell id="5t4HWGCkfHh8ap054Ajh-43" value="" style="endArrow=none;html=1;rounded=0;" parent="5t4HWGCkfHh8ap054Ajh-40" edge="1">
                    <mxGeometry width="50" height="50" relative="1" as="geometry">
                        <mxPoint x="33.42857142857143" y="30.585545470815326" as="sourcePoint"/>
                        <mxPoint x="33.42857142857143" y="0.9340229591184501" as="targetPoint"/>
                    </mxGeometry>
                </mxCell>
                <mxCell id="5t4HWGCkfHh8ap054Ajh-44" value="" style="endArrow=none;html=1;rounded=0;" parent="5t4HWGCkfHh8ap054Ajh-40" edge="1">
                    <mxGeometry width="50" height="50" relative="1" as="geometry">
                        <mxPoint y="15.611526602408413" as="sourcePoint"/>
                        <mxPoint x="31.836734693877556" y="15.611526602408413" as="targetPoint"/>
                    </mxGeometry>
                </mxCell>
                <mxCell id="5t4HWGCkfHh8ap054Ajh-45" value="" style="endArrow=none;html=1;rounded=0;endFill=0;" parent="1" edge="1">
                    <mxGeometry width="50" height="50" relative="1" as="geometry">
                        <mxPoint x="356.9542857142858" y="389.10167770306543" as="sourcePoint"/>
                        <mxPoint x="470" y="390" as="targetPoint"/>
                    </mxGeometry>
                </mxCell>
                <mxCell id="5t4HWGCkfHh8ap054Ajh-50" value="" style="endArrow=none;html=1;rounded=0;endFill=0;startArrow=openThin;startFill=0;" parent="1" edge="1">
                    <mxGeometry width="50" height="50" relative="1" as="geometry">
                        <mxPoint x="450.0040816326532" y="457.1667476286657" as="sourcePoint"/>
                        <mxPoint x="450.0040816326532" y="388.96824585176284" as="targetPoint"/>
                    </mxGeometry>
                </mxCell>
                <mxCell id="5t4HWGCkfHh8ap054Ajh-51" value="p_e" style="edgeLabel;html=1;align=center;verticalAlign=middle;resizable=0;points=[];" parent="5t4HWGCkfHh8ap054Ajh-50" vertex="1" connectable="0">
                    <mxGeometry x="0.2754" y="-2" relative="1" as="geometry">
                        <mxPoint x="-22" y="5" as="offset"/>
                    </mxGeometry>
                </mxCell>
                <mxCell id="5t4HWGCkfHh8ap054Ajh-70" value="" style="endArrow=none;html=1;rounded=0;" parent="1" edge="1">
                    <mxGeometry width="50" height="50" relative="1" as="geometry">
                        <mxPoint x="469.8142857142858" y="436.4509863728173" as="sourcePoint"/>
                        <mxPoint x="469.81" y="344.11" as="targetPoint"/>
                    </mxGeometry>
                </mxCell>
                <mxCell id="5t4HWGCkfHh8ap054Ajh-71" value="" style="group" parent="1" vertex="1" connectable="0">
                    <mxGeometry x="470.0042857142858" y="306.87800577813" width="146.84693877551024" height="75.98202643622324" as="geometry"/>
                </mxCell>
                <mxCell id="5t4HWGCkfHh8ap054Ajh-72" value="" style="group" parent="5t4HWGCkfHh8ap054Ajh-71" vertex="1" connectable="0">
                    <mxGeometry y="21.4825280597244" width="65.265306122449" height="31.14892439853758" as="geometry"/>
                </mxCell>
                <mxCell id="5t4HWGCkfHh8ap054Ajh-73" value="" style="endArrow=openThin;html=1;rounded=0;endFill=0;" parent="5t4HWGCkfHh8ap054Ajh-72" edge="1">
                    <mxGeometry width="50" height="50" relative="1" as="geometry">
                        <mxPoint x="33.42857142857144" y="0.014825761255856022" as="sourcePoint"/>
                        <mxPoint x="65.265306122449" as="targetPoint"/>
                    </mxGeometry>
                </mxCell>
                <mxCell id="5t4HWGCkfHh8ap054Ajh-74" value="" style="endArrow=openThin;html=1;rounded=0;endFill=0;" parent="5t4HWGCkfHh8ap054Ajh-72" edge="1">
                    <mxGeometry width="50" height="50" relative="1" as="geometry">
                        <mxPoint x="33.42857142857144" y="31.14892439853758" as="sourcePoint"/>
                        <mxPoint x="65.265306122449" y="31.134098637281728" as="targetPoint"/>
                    </mxGeometry>
                </mxCell>
                <mxCell id="5t4HWGCkfHh8ap054Ajh-75" value="" style="endArrow=none;html=1;rounded=0;" parent="5t4HWGCkfHh8ap054Ajh-72" edge="1">
                    <mxGeometry width="50" height="50" relative="1" as="geometry">
                        <mxPoint x="33.42857142857144" y="30.585545470815326" as="sourcePoint"/>
                        <mxPoint x="33.42857142857144" y="0.9340229591184501" as="targetPoint"/>
                    </mxGeometry>
                </mxCell>
                <mxCell id="5t4HWGCkfHh8ap054Ajh-76" value="" style="endArrow=none;html=1;rounded=0;" parent="5t4HWGCkfHh8ap054Ajh-72" edge="1">
                    <mxGeometry width="50" height="50" relative="1" as="geometry">
                        <mxPoint y="15.611526602408413" as="sourcePoint"/>
                        <mxPoint x="31.83673469387756" y="15.611526602408413" as="targetPoint"/>
                    </mxGeometry>
                </mxCell>
                <mxCell id="itkfZEg0Y2qf4nTilUd--1" value="" style="rhombus;whiteSpace=wrap;html=1;" parent="5t4HWGCkfHh8ap054Ajh-72" vertex="1">
                    <mxGeometry x="27.635714285714187" y="10.569466162145602" width="10" height="10" as="geometry"/>
                </mxCell>
                <mxCell id="5t4HWGCkfHh8ap054Ajh-77" value="" style="group" parent="5t4HWGCkfHh8ap054Ajh-71" vertex="1" connectable="0">
                    <mxGeometry x="65.265306122449" width="81.58163265306125" height="75.98202643622324" as="geometry"/>
                </mxCell>
                <mxCell id="5t4HWGCkfHh8ap054Ajh-78" value="" style="group" parent="5t4HWGCkfHh8ap054Ajh-77" vertex="1" connectable="0">
                    <mxGeometry y="15.759784214966883" width="63.67346938775512" height="14.825761255848438" as="geometry"/>
                </mxCell>
                <mxCell id="5t4HWGCkfHh8ap054Ajh-79" value="" style="endArrow=none;html=1;rounded=0;" parent="5t4HWGCkfHh8ap054Ajh-78" edge="1">
                    <mxGeometry width="50" height="50" relative="1" as="geometry">
                        <mxPoint as="sourcePoint"/>
                        <mxPoint x="63.67346938775512" as="targetPoint"/>
                    </mxGeometry>
                </mxCell>
                <mxCell id="5t4HWGCkfHh8ap054Ajh-80" value="" style="endArrow=none;html=1;rounded=0;" parent="5t4HWGCkfHh8ap054Ajh-78" edge="1">
                    <mxGeometry width="50" height="50" relative="1" as="geometry">
                        <mxPoint x="63.67346938775512" y="14.825761255848438" as="sourcePoint"/>
                        <mxPoint x="63.67346938775512" as="targetPoint"/>
                    </mxGeometry>
                </mxCell>
                <mxCell id="5t4HWGCkfHh8ap054Ajh-81" value="" style="endArrow=none;html=1;rounded=0;" parent="5t4HWGCkfHh8ap054Ajh-78" edge="1">
                    <mxGeometry width="50" height="50" relative="1" as="geometry">
                        <mxPoint y="14.825761255848438" as="sourcePoint"/>
                        <mxPoint x="63.67346938775512" y="14.825761255848438" as="targetPoint"/>
                    </mxGeometry>
                </mxCell>
                <mxCell id="5t4HWGCkfHh8ap054Ajh-82" value="" style="endArrow=none;html=1;rounded=0;" parent="5t4HWGCkfHh8ap054Ajh-78" edge="1">
                    <mxGeometry width="50" height="50" relative="1" as="geometry">
                        <mxPoint x="47.75510204081634" y="14.825761255848438" as="sourcePoint"/>
                        <mxPoint x="47.75510204081634" as="targetPoint"/>
                    </mxGeometry>
                </mxCell>
                <mxCell id="5t4HWGCkfHh8ap054Ajh-83" value="" style="endArrow=none;html=1;rounded=0;" parent="5t4HWGCkfHh8ap054Ajh-78" edge="1">
                    <mxGeometry width="50" height="50" relative="1" as="geometry">
                        <mxPoint x="31.83673469387756" y="14.825761255848438" as="sourcePoint"/>
                        <mxPoint x="31.83673469387756" as="targetPoint"/>
                    </mxGeometry>
                </mxCell>
                <mxCell id="5t4HWGCkfHh8ap054Ajh-84" value="" style="endArrow=none;html=1;rounded=0;" parent="5t4HWGCkfHh8ap054Ajh-78" edge="1">
                    <mxGeometry width="50" height="50" relative="1" as="geometry">
                        <mxPoint x="15.91836734693878" y="14.825761255848438" as="sourcePoint"/>
                        <mxPoint x="15.91836734693878" as="targetPoint"/>
                    </mxGeometry>
                </mxCell>
                <mxCell id="5t4HWGCkfHh8ap054Ajh-85" value="" style="group" parent="5t4HWGCkfHh8ap054Ajh-77" vertex="1" connectable="0">
                    <mxGeometry y="46.33050392452637" width="63.67346938775512" height="14.825761255848438" as="geometry"/>
                </mxCell>
                <mxCell id="5t4HWGCkfHh8ap054Ajh-86" value="" style="endArrow=none;html=1;rounded=0;" parent="5t4HWGCkfHh8ap054Ajh-85" edge="1">
                    <mxGeometry width="50" height="50" relative="1" as="geometry">
                        <mxPoint as="sourcePoint"/>
                        <mxPoint x="63.67346938775512" as="targetPoint"/>
                    </mxGeometry>
                </mxCell>
                <mxCell id="5t4HWGCkfHh8ap054Ajh-87" value="" style="endArrow=none;html=1;rounded=0;" parent="5t4HWGCkfHh8ap054Ajh-85" edge="1">
                    <mxGeometry width="50" height="50" relative="1" as="geometry">
                        <mxPoint x="63.67346938775512" y="14.825761255848438" as="sourcePoint"/>
                        <mxPoint x="63.67346938775512" as="targetPoint"/>
                    </mxGeometry>
                </mxCell>
                <mxCell id="5t4HWGCkfHh8ap054Ajh-88" value="" style="endArrow=none;html=1;rounded=0;" parent="5t4HWGCkfHh8ap054Ajh-85" edge="1">
                    <mxGeometry width="50" height="50" relative="1" as="geometry">
                        <mxPoint y="14.825761255848438" as="sourcePoint"/>
                        <mxPoint x="63.67346938775512" y="14.825761255848438" as="targetPoint"/>
                    </mxGeometry>
                </mxCell>
                <mxCell id="5t4HWGCkfHh8ap054Ajh-89" value="" style="endArrow=none;html=1;rounded=0;" parent="5t4HWGCkfHh8ap054Ajh-85" edge="1">
                    <mxGeometry width="50" height="50" relative="1" as="geometry">
                        <mxPoint x="47.75510204081634" y="14.825761255848438" as="sourcePoint"/>
                        <mxPoint x="47.75510204081634" as="targetPoint"/>
                    </mxGeometry>
                </mxCell>
                <mxCell id="5t4HWGCkfHh8ap054Ajh-90" value="" style="endArrow=none;html=1;rounded=0;" parent="5t4HWGCkfHh8ap054Ajh-85" edge="1">
                    <mxGeometry width="50" height="50" relative="1" as="geometry">
                        <mxPoint x="31.83673469387756" y="14.825761255848438" as="sourcePoint"/>
                        <mxPoint x="31.83673469387756" as="targetPoint"/>
                    </mxGeometry>
                </mxCell>
                <mxCell id="5t4HWGCkfHh8ap054Ajh-91" value="" style="endArrow=none;html=1;rounded=0;" parent="5t4HWGCkfHh8ap054Ajh-85" edge="1">
                    <mxGeometry width="50" height="50" relative="1" as="geometry">
                        <mxPoint x="15.91836734693878" y="14.825761255848438" as="sourcePoint"/>
                        <mxPoint x="15.91836734693878" as="targetPoint"/>
                    </mxGeometry>
                </mxCell>
                <mxCell id="5t4HWGCkfHh8ap054Ajh-92" value="" style="group" parent="5t4HWGCkfHh8ap054Ajh-77" vertex="1" connectable="0">
                    <mxGeometry x="63.67346938775512" width="17.908163265306126" height="75.98202643622324" as="geometry"/>
                </mxCell>
                <mxCell id="5t4HWGCkfHh8ap054Ajh-93" value="" style="ellipse;whiteSpace=wrap;html=1;aspect=fixed;strokeWidth=0;" parent="5t4HWGCkfHh8ap054Ajh-92" vertex="1">
                    <mxGeometry width="16.678981412829494" height="16.678981412829494" as="geometry"/>
                </mxCell>
                <mxCell id="5t4HWGCkfHh8ap054Ajh-94" value="" style="ellipse;whiteSpace=wrap;html=1;aspect=fixed;strokeWidth=0;" parent="5t4HWGCkfHh8ap054Ajh-92" vertex="1">
                    <mxGeometry y="16.678981412829494" width="16.678981412829494" height="16.678981412829494" as="geometry"/>
                </mxCell>
                <mxCell id="5t4HWGCkfHh8ap054Ajh-95" value="" style="ellipse;whiteSpace=wrap;html=1;aspect=fixed;strokeWidth=0;direction=south;" parent="5t4HWGCkfHh8ap054Ajh-92" vertex="1">
                    <mxGeometry y="59.30304502339375" width="16.678981412829494" height="16.678981412829494" as="geometry"/>
                </mxCell>
                <mxCell id="5t4HWGCkfHh8ap054Ajh-96" value="" style="endArrow=none;dashed=1;html=1;dashPattern=1 3;strokeWidth=2;rounded=0;exitX=0;exitY=0.5;exitDx=0;exitDy=0;" parent="5t4HWGCkfHh8ap054Ajh-92" source="5t4HWGCkfHh8ap054Ajh-95" edge="1">
                    <mxGeometry width="50" height="50" relative="1" as="geometry">
                        <mxPoint x="8.691428571428586" y="48.18372408150743" as="sourcePoint"/>
                        <mxPoint x="8.691428571428586" y="33.35796282565899" as="targetPoint"/>
                    </mxGeometry>
                </mxCell>
                <mxCell id="5t4HWGCkfHh8ap054Ajh-97" value="" style="group" parent="1" vertex="1" connectable="0">
                    <mxGeometry x="470.0042857142858" y="397.6857934702017" width="146.84693877551024" height="75.98202643622324" as="geometry"/>
                </mxCell>
                <mxCell id="5t4HWGCkfHh8ap054Ajh-98" value="" style="group" parent="5t4HWGCkfHh8ap054Ajh-97" vertex="1" connectable="0">
                    <mxGeometry x="65.265306122449" width="81.58163265306125" height="75.98202643622324" as="geometry"/>
                </mxCell>
                <mxCell id="5t4HWGCkfHh8ap054Ajh-99" value="" style="group" parent="5t4HWGCkfHh8ap054Ajh-98" vertex="1" connectable="0">
                    <mxGeometry y="15.759784214966883" width="63.67346938775512" height="14.825761255848438" as="geometry"/>
                </mxCell>
                <mxCell id="5t4HWGCkfHh8ap054Ajh-100" value="" style="endArrow=none;html=1;rounded=0;" parent="5t4HWGCkfHh8ap054Ajh-99" edge="1">
                    <mxGeometry width="50" height="50" relative="1" as="geometry">
                        <mxPoint as="sourcePoint"/>
                        <mxPoint x="63.67346938775512" as="targetPoint"/>
                    </mxGeometry>
                </mxCell>
                <mxCell id="5t4HWGCkfHh8ap054Ajh-101" value="" style="endArrow=none;html=1;rounded=0;" parent="5t4HWGCkfHh8ap054Ajh-99" edge="1">
                    <mxGeometry width="50" height="50" relative="1" as="geometry">
                        <mxPoint x="63.67346938775512" y="14.825761255848438" as="sourcePoint"/>
                        <mxPoint x="63.67346938775512" as="targetPoint"/>
                    </mxGeometry>
                </mxCell>
                <mxCell id="5t4HWGCkfHh8ap054Ajh-102" value="" style="endArrow=none;html=1;rounded=0;" parent="5t4HWGCkfHh8ap054Ajh-99" edge="1">
                    <mxGeometry width="50" height="50" relative="1" as="geometry">
                        <mxPoint y="14.825761255848438" as="sourcePoint"/>
                        <mxPoint x="63.67346938775512" y="14.825761255848438" as="targetPoint"/>
                    </mxGeometry>
                </mxCell>
                <mxCell id="5t4HWGCkfHh8ap054Ajh-103" value="" style="endArrow=none;html=1;rounded=0;" parent="5t4HWGCkfHh8ap054Ajh-99" edge="1">
                    <mxGeometry width="50" height="50" relative="1" as="geometry">
                        <mxPoint x="47.75510204081634" y="14.825761255848438" as="sourcePoint"/>
                        <mxPoint x="47.75510204081634" as="targetPoint"/>
                    </mxGeometry>
                </mxCell>
                <mxCell id="5t4HWGCkfHh8ap054Ajh-104" value="" style="endArrow=none;html=1;rounded=0;" parent="5t4HWGCkfHh8ap054Ajh-99" edge="1">
                    <mxGeometry width="50" height="50" relative="1" as="geometry">
                        <mxPoint x="31.83673469387756" y="14.825761255848438" as="sourcePoint"/>
                        <mxPoint x="31.83673469387756" as="targetPoint"/>
                    </mxGeometry>
                </mxCell>
                <mxCell id="5t4HWGCkfHh8ap054Ajh-105" value="" style="endArrow=none;html=1;rounded=0;" parent="5t4HWGCkfHh8ap054Ajh-99" edge="1">
                    <mxGeometry width="50" height="50" relative="1" as="geometry">
                        <mxPoint x="15.91836734693878" y="14.825761255848438" as="sourcePoint"/>
                        <mxPoint x="15.91836734693878" as="targetPoint"/>
                    </mxGeometry>
                </mxCell>
                <mxCell id="5t4HWGCkfHh8ap054Ajh-106" value="" style="group" parent="5t4HWGCkfHh8ap054Ajh-98" vertex="1" connectable="0">
                    <mxGeometry y="46.33050392452637" width="63.67346938775512" height="14.825761255848438" as="geometry"/>
                </mxCell>
                <mxCell id="5t4HWGCkfHh8ap054Ajh-107" value="" style="endArrow=none;html=1;rounded=0;" parent="5t4HWGCkfHh8ap054Ajh-106" edge="1">
                    <mxGeometry width="50" height="50" relative="1" as="geometry">
                        <mxPoint as="sourcePoint"/>
                        <mxPoint x="63.67346938775512" as="targetPoint"/>
                    </mxGeometry>
                </mxCell>
                <mxCell id="5t4HWGCkfHh8ap054Ajh-108" value="" style="endArrow=none;html=1;rounded=0;" parent="5t4HWGCkfHh8ap054Ajh-106" edge="1">
                    <mxGeometry width="50" height="50" relative="1" as="geometry">
                        <mxPoint x="63.67346938775512" y="14.825761255848438" as="sourcePoint"/>
                        <mxPoint x="63.67346938775512" as="targetPoint"/>
                    </mxGeometry>
                </mxCell>
                <mxCell id="5t4HWGCkfHh8ap054Ajh-109" value="" style="endArrow=none;html=1;rounded=0;" parent="5t4HWGCkfHh8ap054Ajh-106" edge="1">
                    <mxGeometry width="50" height="50" relative="1" as="geometry">
                        <mxPoint y="14.825761255848438" as="sourcePoint"/>
                        <mxPoint x="63.67346938775512" y="14.825761255848438" as="targetPoint"/>
                    </mxGeometry>
                </mxCell>
                <mxCell id="5t4HWGCkfHh8ap054Ajh-110" value="" style="endArrow=none;html=1;rounded=0;" parent="5t4HWGCkfHh8ap054Ajh-106" edge="1">
                    <mxGeometry width="50" height="50" relative="1" as="geometry">
                        <mxPoint x="47.75510204081634" y="14.825761255848438" as="sourcePoint"/>
                        <mxPoint x="47.75510204081634" as="targetPoint"/>
                    </mxGeometry>
                </mxCell>
                <mxCell id="5t4HWGCkfHh8ap054Ajh-111" value="" style="endArrow=none;html=1;rounded=0;" parent="5t4HWGCkfHh8ap054Ajh-106" edge="1">
                    <mxGeometry width="50" height="50" relative="1" as="geometry">
                        <mxPoint x="31.83673469387756" y="14.825761255848438" as="sourcePoint"/>
                        <mxPoint x="31.83673469387756" as="targetPoint"/>
                    </mxGeometry>
                </mxCell>
                <mxCell id="5t4HWGCkfHh8ap054Ajh-112" value="" style="endArrow=none;html=1;rounded=0;" parent="5t4HWGCkfHh8ap054Ajh-106" edge="1">
                    <mxGeometry width="50" height="50" relative="1" as="geometry">
                        <mxPoint x="15.91836734693878" y="14.825761255848438" as="sourcePoint"/>
                        <mxPoint x="15.91836734693878" as="targetPoint"/>
                    </mxGeometry>
                </mxCell>
                <mxCell id="5t4HWGCkfHh8ap054Ajh-113" value="" style="group" parent="5t4HWGCkfHh8ap054Ajh-98" vertex="1" connectable="0">
                    <mxGeometry x="63.67346938775512" width="17.908163265306126" height="75.98202643622324" as="geometry"/>
                </mxCell>
                <mxCell id="5t4HWGCkfHh8ap054Ajh-114" value="" style="ellipse;whiteSpace=wrap;html=1;aspect=fixed;strokeWidth=0;" parent="5t4HWGCkfHh8ap054Ajh-113" vertex="1">
                    <mxGeometry width="16.678981412829494" height="16.678981412829494" as="geometry"/>
                </mxCell>
                <mxCell id="5t4HWGCkfHh8ap054Ajh-115" value="" style="ellipse;whiteSpace=wrap;html=1;aspect=fixed;strokeWidth=0;" parent="5t4HWGCkfHh8ap054Ajh-113" vertex="1">
                    <mxGeometry y="16.678981412829494" width="16.678981412829494" height="16.678981412829494" as="geometry"/>
                </mxCell>
                <mxCell id="5t4HWGCkfHh8ap054Ajh-116" value="" style="ellipse;whiteSpace=wrap;html=1;aspect=fixed;strokeWidth=0;direction=south;" parent="5t4HWGCkfHh8ap054Ajh-113" vertex="1">
                    <mxGeometry y="59.30304502339375" width="16.678981412829494" height="16.678981412829494" as="geometry"/>
                </mxCell>
                <mxCell id="5t4HWGCkfHh8ap054Ajh-117" value="" style="endArrow=none;dashed=1;html=1;dashPattern=1 3;strokeWidth=2;rounded=0;exitX=0;exitY=0.5;exitDx=0;exitDy=0;" parent="5t4HWGCkfHh8ap054Ajh-113" source="5t4HWGCkfHh8ap054Ajh-116" edge="1">
                    <mxGeometry width="50" height="50" relative="1" as="geometry">
                        <mxPoint x="8.691428571428586" y="48.18372408150743" as="sourcePoint"/>
                        <mxPoint x="8.691428571428586" y="33.35796282565899" as="targetPoint"/>
                    </mxGeometry>
                </mxCell>
                <mxCell id="5t4HWGCkfHh8ap054Ajh-118" value="" style="group" parent="5t4HWGCkfHh8ap054Ajh-97" vertex="1" connectable="0">
                    <mxGeometry y="22.416551018842846" width="65.265306122449" height="31.14892439853758" as="geometry"/>
                </mxCell>
                <mxCell id="5t4HWGCkfHh8ap054Ajh-119" value="" style="endArrow=openThin;html=1;rounded=0;endFill=0;" parent="5t4HWGCkfHh8ap054Ajh-118" edge="1">
                    <mxGeometry width="50" height="50" relative="1" as="geometry">
                        <mxPoint x="33.42857142857144" y="0.014825761255856022" as="sourcePoint"/>
                        <mxPoint x="65.265306122449" as="targetPoint"/>
                    </mxGeometry>
                </mxCell>
                <mxCell id="5t4HWGCkfHh8ap054Ajh-120" value="" style="endArrow=openThin;html=1;rounded=0;endFill=0;" parent="5t4HWGCkfHh8ap054Ajh-118" edge="1">
                    <mxGeometry width="50" height="50" relative="1" as="geometry">
                        <mxPoint x="33.42857142857144" y="31.14892439853758" as="sourcePoint"/>
                        <mxPoint x="65.265306122449" y="31.134098637281728" as="targetPoint"/>
                    </mxGeometry>
                </mxCell>
                <mxCell id="5t4HWGCkfHh8ap054Ajh-121" value="" style="endArrow=none;html=1;rounded=0;" parent="5t4HWGCkfHh8ap054Ajh-118" edge="1">
                    <mxGeometry width="50" height="50" relative="1" as="geometry">
                        <mxPoint x="33.42857142857144" y="30.585545470815326" as="sourcePoint"/>
                        <mxPoint x="33.42857142857144" y="0.9340229591184501" as="targetPoint"/>
                    </mxGeometry>
                </mxCell>
                <mxCell id="5t4HWGCkfHh8ap054Ajh-122" value="" style="endArrow=none;html=1;rounded=0;" parent="5t4HWGCkfHh8ap054Ajh-118" edge="1">
                    <mxGeometry width="50" height="50" relative="1" as="geometry">
                        <mxPoint y="15.611526602408413" as="sourcePoint"/>
                        <mxPoint x="31.83673469387756" y="15.611526602408413" as="targetPoint"/>
                    </mxGeometry>
                </mxCell>
                <mxCell id="itkfZEg0Y2qf4nTilUd--3" value="" style="rhombus;whiteSpace=wrap;html=1;" parent="5t4HWGCkfHh8ap054Ajh-118" vertex="1">
                    <mxGeometry x="27.635714285714187" y="10.57765551095548" width="10" height="10" as="geometry"/>
                </mxCell>
                <mxCell id="5t4HWGCkfHh8ap054Ajh-123" value="" style="endArrow=none;html=1;rounded=0;" parent="1" edge="1">
                    <mxGeometry width="50" height="50" relative="1" as="geometry">
                        <mxPoint x="661" y="440" as="sourcePoint"/>
                        <mxPoint x="661.024693877551" y="344.5606575818781" as="targetPoint"/>
                    </mxGeometry>
                </mxCell>
                <mxCell id="5t4HWGCkfHh8ap054Ajh-124" value="" style="endArrow=openThin;html=1;rounded=0;endFill=0;" parent="1" edge="1">
                    <mxGeometry width="50" height="50" relative="1" as="geometry">
                        <mxPoint x="616.8512244897959" y="344.52061360672917" as="sourcePoint"/>
                        <mxPoint x="661.024693877551" y="344.4909620842175" as="targetPoint"/>
                    </mxGeometry>
                </mxCell>
                <mxCell id="5t4HWGCkfHh8ap054Ajh-125" value="" style="endArrow=openThin;html=1;rounded=0;endFill=0;" parent="1" edge="1">
                    <mxGeometry width="50" height="50" relative="1" as="geometry">
                        <mxPoint x="616.8512244897959" y="435.3284012988008" as="sourcePoint"/>
                        <mxPoint x="661.024693877551" y="434.92810574489295" as="targetPoint"/>
                    </mxGeometry>
                </mxCell>
                <mxCell id="5t4HWGCkfHh8ap054Ajh-137" value="Area&amp;nbsp;&lt;span style=&quot;background-color: initial;&quot;&gt;Attrazioni&lt;/span&gt;" style="text;html=1;align=center;verticalAlign=middle;whiteSpace=wrap;rounded=0;fontSize=12;" parent="1" vertex="1">
                    <mxGeometry x="521.3410204081632" y="473.66781990642494" width="95.51020408163266" height="44.477283767545316" as="geometry"/>
                </mxCell>
                <mxCell id="5t4HWGCkfHh8ap054Ajh-138" value="" style="endArrow=none;dashed=1;html=1;dashPattern=1 3;strokeWidth=2;rounded=0;" parent="1" edge="1">
                    <mxGeometry width="50" height="50" relative="1" as="geometry">
                        <mxPoint x="545.2185714285715" y="388.99789737427454" as="sourcePoint"/>
                        <mxPoint x="592.9736734693878" y="388.99789737427454" as="targetPoint"/>
                    </mxGeometry>
                </mxCell>
                <mxCell id="5t4HWGCkfHh8ap054Ajh-163" value="" style="group" parent="1" vertex="1" connectable="0">
                    <mxGeometry x="230.22979591836736" y="177.51464832664328" width="63.67346938775511" height="14.825761255848438" as="geometry"/>
                </mxCell>
                <mxCell id="5t4HWGCkfHh8ap054Ajh-164" value="" style="endArrow=none;html=1;rounded=0;" parent="5t4HWGCkfHh8ap054Ajh-163" edge="1">
                    <mxGeometry width="50" height="50" relative="1" as="geometry">
                        <mxPoint as="sourcePoint"/>
                        <mxPoint x="63.67346938775511" as="targetPoint"/>
                    </mxGeometry>
                </mxCell>
                <mxCell id="5t4HWGCkfHh8ap054Ajh-165" value="" style="endArrow=none;html=1;rounded=0;" parent="5t4HWGCkfHh8ap054Ajh-163" edge="1">
                    <mxGeometry width="50" height="50" relative="1" as="geometry">
                        <mxPoint x="63.67346938775511" y="14.825761255848438" as="sourcePoint"/>
                        <mxPoint x="63.67346938775511" as="targetPoint"/>
                    </mxGeometry>
                </mxCell>
                <mxCell id="5t4HWGCkfHh8ap054Ajh-166" value="" style="endArrow=none;html=1;rounded=0;" parent="5t4HWGCkfHh8ap054Ajh-163" edge="1">
                    <mxGeometry width="50" height="50" relative="1" as="geometry">
                        <mxPoint y="14.825761255848438" as="sourcePoint"/>
                        <mxPoint x="63.67346938775511" y="14.825761255848438" as="targetPoint"/>
                    </mxGeometry>
                </mxCell>
                <mxCell id="5t4HWGCkfHh8ap054Ajh-167" value="" style="endArrow=none;html=1;rounded=0;" parent="5t4HWGCkfHh8ap054Ajh-163" edge="1">
                    <mxGeometry width="50" height="50" relative="1" as="geometry">
                        <mxPoint x="47.75510204081633" y="14.825761255848438" as="sourcePoint"/>
                        <mxPoint x="47.75510204081633" as="targetPoint"/>
                        <Array as="points">
                            <mxPoint x="47.75510204081633" y="14.825761255848438"/>
                        </Array>
                    </mxGeometry>
                </mxCell>
                <mxCell id="5t4HWGCkfHh8ap054Ajh-168" value="" style="endArrow=none;html=1;rounded=0;" parent="5t4HWGCkfHh8ap054Ajh-163" edge="1">
                    <mxGeometry width="50" height="50" relative="1" as="geometry">
                        <mxPoint x="31.836734693877556" y="14.825761255848438" as="sourcePoint"/>
                        <mxPoint x="31.836734693877556" as="targetPoint"/>
                    </mxGeometry>
                </mxCell>
                <mxCell id="5t4HWGCkfHh8ap054Ajh-169" value="" style="endArrow=none;html=1;rounded=0;" parent="5t4HWGCkfHh8ap054Ajh-163" edge="1">
                    <mxGeometry width="50" height="50" relative="1" as="geometry">
                        <mxPoint x="15.918367346938778" y="14.825761255848438" as="sourcePoint"/>
                        <mxPoint x="15.918367346938778" as="targetPoint"/>
                    </mxGeometry>
                </mxCell>
                <mxCell id="5t4HWGCkfHh8ap054Ajh-171" value="" style="endArrow=none;html=1;rounded=0;" parent="1" edge="1">
                    <mxGeometry width="50" height="50" relative="1" as="geometry">
                        <mxPoint x="660" y="389.44" as="sourcePoint"/>
                        <mxPoint x="720" y="389.06" as="targetPoint"/>
                    </mxGeometry>
                </mxCell>
                <mxCell id="5t4HWGCkfHh8ap054Ajh-172" value="" style="endArrow=none;html=1;rounded=0;" parent="1" edge="1">
                    <mxGeometry width="50" height="50" relative="1" as="geometry">
                        <mxPoint x="720" y="388.38" as="sourcePoint"/>
                        <mxPoint x="720" y="290" as="targetPoint"/>
                    </mxGeometry>
                </mxCell>
                <mxCell id="5t4HWGCkfHh8ap054Ajh-173" value="" style="endArrow=none;html=1;rounded=0;" parent="1" edge="1">
                    <mxGeometry width="50" height="50" relative="1" as="geometry">
                        <mxPoint x="400" y="290" as="sourcePoint"/>
                        <mxPoint x="720" y="290" as="targetPoint"/>
                    </mxGeometry>
                </mxCell>
                <mxCell id="5t4HWGCkfHh8ap054Ajh-174" value="" style="endArrow=none;html=1;rounded=0;startArrow=openThin;startFill=0;" parent="1" edge="1">
                    <mxGeometry width="50" height="50" relative="1" as="geometry">
                        <mxPoint x="400" y="390" as="sourcePoint"/>
                        <mxPoint x="400" y="290" as="targetPoint"/>
                    </mxGeometry>
                </mxCell>
            </root>
        </mxGraphModel>
    </diagram>
</mxfile>